<!DOCTYPE svg PUBLIC "-//W3C//DTD SVG 20010904//EN" "http://www.w3.org/TR/2001/REC-SVG-20010904/DTD/svg10.dtd">
<svg version="1.0" xmlns="http://www.w3.org/2000/svg" width="1024px" height="1024px" viewBox="0 0 10240 10240" preserveAspectRatio="xMidYMid meet">
<g id="layer101" fill="#ffffff" stroke="none">
 <path d="M1766 8322 c-2 -1 -25 -4 -52 -7 -71 -7 -112 -13 -169 -25 -27 -6 -61 -13 -75 -15 -14 -2 -27 -5 -30 -6 -3 -1 -9 -3 -15 -4 -5 -1 -23 -7 -38 -13 -15 -7 -31 -11 -35 -11 -4 1 -10 0 -14 -1 -5 -1 -12 -4 -18 -5 -5 -1 -12 -4 -15 -5 -3 -1 -8 -3 -12 -4 -5 -1 -17 -7 -28 -13 -11 -6 -29 -13 -40 -14 -11 -2 -23 -8 -26 -12 -3 -4 -16 -9 -27 -10 -12 -1 -22 -5 -22 -9 0 -4 -3 -7 -7 -6 -5 1 -42 -16 -83 -37 -41 -21 -78 -38 -82 -37 -5 1 -8 -3 -8 -9 0 -5 -4 -7 -10 -4 -5 3 -10 1 -10 -4 0 -6 -7 -11 -15 -11 -8 0 -15 -5 -15 -11 0 -5 -4 -7 -10 -4 -5 3 -10 1 -10 -4 0 -6 -7 -11 -15 -11 -8 0 -15 -4 -15 -10 0 -5 -7 -10 -15 -10 -8 0 -15 -4 -15 -10 0 -5 -6 -10 -14 -10 -8 0 -17 -7 -20 -16 -3 -8 -10 -13 -15 -9 -6 3 -15 -4 -21 -15 -6 -11 -15 -18 -20 -15 -5 3 -14 -4 -20 -15 -6 -11 -16 -20 -23 -20 -7 0 -23 -13 -35 -30 -13 -16 -28 -30 -35 -30 -16 0 -157 -141 -157 -157 0 -7 -14 -22 -30 -35 -17 -12 -30 -28 -30 -35 0 -7 -9 -17 -20 -23 -11 -6 -18 -15 -15 -20 3 -5 -4 -14 -15 -20 -11 -6 -18 -15 -15 -21 4 -5 -1 -12 -9 -15 -9 -3 -16 -12 -16 -20 0 -8 -4 -14 -10 -14 -5 0 -10 -7 -10 -15 0 -8 -4 -15 -10 -15 -5 0 -10 -7 -10 -15 0 -8 -5 -15 -11 -15 -5 0 -7 -4 -4 -10 3 -5 1 -10 -4 -10 -6 0 -11 -7 -11 -15 0 -8 -5 -15 -11 -15 -5 0 -7 -4 -4 -10 3 -5 1 -10 -4 -10 -6 0 -10 -3 -9 -7 1 -5 -16 -42 -37 -83 -21 -41 -38 -78 -37 -82 1 -5 -2 -8 -6 -8 -4 0 -8 -10 -9 -22 -1 -11 -6 -24 -10 -27 -4 -3 -10 -15 -12 -26 -1 -11 -8 -29 -14 -40 -6 -11 -12 -23 -13 -27 -1 -5 -3 -10 -4 -13 -1 -3 -4 -9 -5 -15 -1 -5 -4 -13 -5 -17 -1 -5 -2 -11 -1 -15 0 -4 -4 -20 -11 -35 -6 -15 -10 -32 -9 -37 1 -4 -3 -14 -9 -20 -5 -7 -8 -15 -5 -18 3 -2 0 -20 -6 -39 -6 -19 -12 -45 -14 -59 -2 -14 -7 -43 -11 -65 -9 -52 -9 -538 0 -590 4 -22 9 -51 11 -65 2 -14 8 -40 14 -59 6 -19 9 -37 6 -39 -3 -3 0 -11 5 -18 6 -6 10 -16 9 -20 -1 -5 3 -22 10 -38 6 -16 9 -31 6 -34 -2 -3 0 -11 6 -19 6 -7 8 -13 4 -13 -4 0 -2 -7 5 -15 7 -8 9 -15 5 -15 -4 0 -2 -7 5 -15 7 -8 9 -15 4 -15 -5 0 -4 -4 3 -8 6 -4 13 -16 15 -27 1 -11 7 -23 11 -26 4 -3 9 -16 10 -27 1 -12 5 -22 9 -22 4 0 7 -3 6 -7 -1 -5 16 -42 37 -83 21 -41 38 -78 37 -82 -1 -5 3 -8 9 -8 5 0 7 -4 4 -10 -3 -5 -1 -10 4 -10 6 0 11 -7 11 -15 0 -8 5 -15 11 -15 5 0 7 -4 4 -10 -3 -5 -1 -10 4 -10 6 0 11 -7 11 -15 0 -8 5 -15 10 -15 6 0 10 -7 10 -15 0 -8 5 -15 10 -15 6 0 10 -6 10 -14 0 -8 7 -17 16 -20 8 -3 13 -10 9 -15 -3 -6 4 -15 15 -21 11 -6 18 -15 15 -20 -3 -5 4 -14 15 -20 11 -6 20 -16 20 -23 0 -7 14 -23 30 -35 17 -13 30 -28 30 -35 0 -16 141 -157 157 -157 7 0 22 -14 35 -30 12 -17 28 -30 35 -30 7 0 17 -9 23 -20 6 -11 15 -18 20 -15 5 3 14 -4 20 -15 6 -11 15 -18 21 -15 5 4 12 -1 15 -9 3 -9 12 -16 20 -16 8 0 14 -4 14 -10 0 -5 7 -10 15 -10 8 0 15 -4 15 -10 0 -5 7 -10 15 -10 8 0 15 -5 15 -11 0 -5 4 -7 10 -4 5 3 10 1 10 -4 0 -6 7 -11 15 -11 8 0 15 -5 15 -11 0 -5 4 -7 10 -4 5 3 10 1 10 -4 0 -6 3 -10 8 -9 4 1 41 -16 82 -37 41 -21 78 -38 83 -37 4 1 7 -2 7 -6 0 -4 10 -8 22 -9 11 -1 24 -6 27 -10 3 -4 15 -10 26 -11 11 -2 23 -9 27 -15 4 -7 8 -8 8 -3 0 5 7 3 15 -4 8 -7 15 -9 15 -5 0 4 7 2 15 -5 8 -7 15 -9 15 -5 0 4 6 2 13 -4 8 -6 16 -8 19 -6 3 3 18 0 34 -6 16 -7 34 -13 39 -14 6 -1 12 -3 15 -4 3 -1 16 -4 30 -6 14 -2 48 -9 75 -15 52 -11 93 -17 160 -25 62 -7 303 -7 315 0 5 3 11 1 11 -4 3 -20 5 -26 17 -48 7 -13 10 -23 7 -23 -3 0 2 -11 11 -25 9 -14 12 -25 8 -25 -5 0 -4 -4 1 -8 6 -4 28 -45 50 -92 22 -47 45 -88 50 -92 6 -4 6 -8 2 -8 -4 0 1 -10 12 -22 11 -11 18 -25 15 -30 -3 -4 0 -8 5 -8 6 0 11 -7 11 -15 0 -8 5 -15 10 -15 6 0 10 -7 10 -15 0 -8 5 -15 11 -15 5 0 7 -5 4 -10 -3 -6 1 -13 9 -16 9 -3 16 -12 16 -19 0 -7 7 -15 15 -19 8 -3 15 -12 15 -20 0 -7 7 -16 15 -20 8 -3 15 -12 15 -20 0 -7 11 -21 25 -30 14 -9 25 -21 25 -26 0 -12 193 -205 202 -202 4 1 16 -12 28 -28 12 -17 25 -28 30 -25 5 3 14 -4 20 -15 6 -11 15 -18 20 -15 5 3 14 -4 20 -15 6 -11 15 -18 21 -15 5 4 12 -1 15 -9 3 -9 10 -13 15 -10 5 3 12 -2 15 -10 3 -9 10 -13 15 -10 5 3 12 -2 15 -10 3 -9 9 -14 14 -11 4 2 17 -5 28 -16 12 -10 24 -18 26 -17 3 2 14 -5 25 -14 11 -9 22 -14 25 -11 3 4 6 1 6 -6 0 -7 5 -9 10 -6 6 3 10 1 10 -5 0 -6 5 -8 10 -5 6 3 10 1 10 -5 0 -6 5 -8 10 -5 6 3 10 1 10 -5 0 -6 5 -8 10 -5 6 3 10 1 10 -5 0 -6 5 -8 10 -5 5 3 10 1 10 -6 0 -7 3 -10 6 -6 4 3 19 0 35 -9 16 -8 32 -15 36 -15 5 0 18 -7 31 -15 12 -8 22 -12 22 -10 0 3 33 -6 73 -20 39 -14 119 -36 177 -50 165 -39 208 -43 425 -43 94 0 206 5 251 12 65 10 83 10 93 0 6 -7 9 -13 6 -13 -3 0 3 -10 14 -22 11 -11 18 -25 15 -30 -3 -4 0 -8 5 -8 6 0 11 -7 11 -15 0 -8 5 -15 11 -15 5 0 8 -4 5 -9 -3 -5 1 -12 10 -15 8 -3 13 -10 10 -15 -3 -5 1 -12 10 -15 8 -3 13 -10 10 -15 -3 -5 1 -12 10 -15 8 -3 13 -10 9 -15 -3 -6 4 -15 15 -21 11 -6 18 -15 15 -19 -3 -5 2 -11 10 -15 8 -3 15 -11 15 -18 0 -7 9 -19 20 -26 12 -7 18 -17 15 -21 -2 -5 7 -16 20 -25 14 -9 23 -21 20 -25 -2 -5 11 -21 30 -35 19 -15 34 -30 32 -34 -3 -9 206 -218 215 -215 4 2 19 -13 34 -32 14 -19 30 -32 35 -30 4 3 16 -6 25 -20 9 -13 20 -22 25 -20 4 3 14 -3 21 -15 7 -11 19 -20 26 -20 7 0 15 -7 18 -15 4 -8 10 -13 15 -10 4 3 13 -4 19 -15 6 -11 15 -18 21 -15 5 4 12 -1 15 -9 3 -9 10 -13 15 -10 5 3 12 -2 15 -10 3 -9 9 -14 14 -11 4 2 16 -5 28 -15 12 -11 26 -20 32 -20 5 0 10 -5 10 -11 0 -5 4 -7 10 -4 6 3 10 1 10 -4 0 -6 7 -11 15 -11 8 0 15 -5 15 -11 0 -5 5 -7 10 -4 6 3 10 1 10 -4 0 -6 3 -10 8 -9 12 3 62 -25 62 -34 0 -5 5 -6 10 -3 6 3 10 1 10 -5 0 -6 4 -8 10 -5 5 3 10 1 10 -5 0 -6 4 -8 10 -5 6 3 10 1 10 -6 0 -7 3 -10 6 -6 4 3 25 -4 48 -15 22 -12 44 -21 49 -20 4 1 7 -3 7 -10 0 -6 3 -8 7 -5 3 4 17 0 30 -8 13 -9 23 -13 23 -10 0 3 10 0 23 -7 12 -7 24 -13 27 -13 22 -3 100 -29 100 -34 0 -3 10 -7 23 -8 12 0 36 -7 52 -14 17 -6 35 -13 40 -14 6 -1 12 -3 15 -4 3 -2 14 -4 24 -6 11 -2 31 -7 45 -11 14 -4 30 -6 35 -5 4 1 14 -3 20 -9 7 -5 15 -7 18 -5 3 3 25 1 49 -5 44 -11 90 -19 119 -21 8 -1 49 -5 90 -10 76 -10 438 -12 520 -3 25 2 61 6 80 8 19 2 49 6 65 9 17 4 48 9 70 13 22 3 51 7 65 10 14 3 32 6 40 8 9 1 21 6 28 10 7 4 16 5 19 2 3 -3 12 -1 19 4 6 6 16 10 20 9 5 -1 22 3 38 10 16 6 31 9 34 6 3 -2 10 -1 16 4 11 8 105 41 129 45 7 1 18 5 25 9 6 5 12 5 12 0 0 -4 4 -2 9 5 4 7 18 14 29 15 12 1 22 4 22 8 0 7 43 20 56 18 4 0 10 3 13 8 8 11 204 107 214 105 4 -1 7 3 7 10 0 6 3 9 6 5 3 -3 14 2 25 11 11 9 21 15 22 12 1 -3 13 5 26 17 13 12 27 20 31 18 5 -3 11 2 14 11 3 8 10 13 15 10 5 -3 12 1 15 10 3 8 10 13 15 10 5 -3 12 1 15 10 3 8 10 13 15 10 5 -3 12 1 15 10 3 8 10 13 15 9 6 -3 15 4 21 15 6 11 15 18 20 15 5 -3 14 4 20 15 6 11 15 18 19 15 5 -2 16 7 25 20 9 14 20 23 25 21 4 -3 18 8 30 24 12 17 25 29 29 28 9 -3 267 255 264 264 -1 4 11 17 28 29 16 12 27 26 24 30 -2 5 7 16 21 25 13 9 22 20 20 25 -3 4 4 13 15 19 11 6 18 15 15 20 -3 5 4 14 15 20 11 6 18 15 15 21 -4 5 1 12 9 15 9 3 13 10 10 15 -3 5 2 12 10 15 9 3 13 10 10 15 -3 5 2 12 10 15 9 3 13 10 10 15 -3 5 2 12 10 15 9 3 14 9 11 14 -2 4 6 18 18 31 12 13 20 25 17 26 -3 1 3 11 12 22 9 11 14 22 11 25 -4 3 -1 6 5 6 7 0 11 3 10 8 -2 9 94 205 105 213 5 3 8 9 8 13 -2 13 11 56 18 56 4 0 7 10 8 22 1 11 7 24 13 28 7 4 11 10 11 14 -1 3 -1 7 0 9 0 1 2 10 4 19 6 32 38 123 46 134 5 6 6 13 4 16 -3 3 0 18 6 34 7 16 11 33 10 38 -1 4 3 14 9 20 5 7 8 15 5 18 -3 2 0 20 6 39 12 38 15 57 23 114 4 22 9 54 13 70 3 17 7 46 9 65 2 19 6 55 8 80 7 61 7 341 0 351 -5 8 11 13 19 7 2 -2 11 3 20 11 10 7 17 10 17 5 0 -5 4 -3 9 4 4 7 18 14 29 15 12 1 22 5 22 9 0 4 3 7 8 6 4 -1 21 5 38 15 17 9 34 13 38 10 3 -4 6 -1 6 6 0 7 5 9 10 6 6 -3 10 -1 10 5 0 6 5 8 10 5 6 -3 10 -1 10 5 0 6 5 8 10 5 6 -3 10 -2 10 3 0 9 50 37 63 34 4 -1 7 3 7 9 0 5 5 7 10 4 6 -3 10 -1 10 4 0 6 7 11 15 11 8 0 15 5 15 11 0 5 4 8 9 5 5 -3 12 1 15 10 3 8 10 13 15 10 5 -3 12 1 15 10 3 8 10 13 15 10 5 -3 11 1 15 9 3 8 12 15 20 15 7 0 17 7 20 16 3 8 10 13 15 9 6 -3 15 4 21 15 6 11 17 20 24 20 8 0 21 11 30 25 9 14 21 25 26 25 12 0 205 193 202 202 -1 4 12 16 28 28 17 12 28 25 25 30 -3 5 4 14 15 20 11 6 18 15 15 20 -3 5 4 15 15 23 11 7 17 17 14 20 -4 4 1 9 10 13 9 3 16 12 16 20 0 8 5 14 10 14 6 0 10 7 10 15 0 8 5 15 11 15 5 0 8 4 5 8 -3 5 3 18 12 28 10 10 18 22 18 26 -1 4 7 16 16 27 9 11 14 22 11 25 -4 3 -1 6 6 6 7 0 9 5 6 10 -3 6 -1 10 5 10 6 0 8 5 5 10 -3 6 -1 10 5 10 6 0 8 5 5 10 -3 6 -1 10 5 10 6 0 8 5 5 10 -3 6 -1 10 5 10 6 0 8 5 5 10 -3 6 -1 10 6 10 7 0 10 3 6 6 -3 4 0 19 9 35 8 16 15 32 15 36 1 5 6 17 12 28 6 11 12 25 13 32 2 12 49 160 61 193 3 8 7 27 9 42 2 15 8 47 14 70 6 24 13 59 17 78 9 49 8 536 -1 585 -4 22 -9 51 -11 65 -2 14 -8 40 -14 59 -6 19 -9 37 -6 39 3 3 0 11 -5 18 -6 6 -10 16 -9 20 1 5 -3 22 -10 38 -6 16 -9 31 -6 34 2 3 0 11 -6 19 -6 7 -8 13 -4 13 4 0 2 7 -5 15 -7 8 -9 15 -5 15 4 0 2 7 -5 15 -7 8 -9 15 -4 15 5 0 3 4 -3 8 -7 4 -14 17 -16 27 -2 11 -8 30 -15 41 -6 12 -8 24 -5 28 3 3 1 6 -5 6 -7 0 -11 3 -10 8 1 4 -16 41 -37 82 -21 41 -38 78 -37 83 1 4 -3 7 -9 7 -5 0 -7 5 -4 10 3 6 1 10 -4 10 -6 0 -11 7 -11 15 0 8 -5 15 -11 15 -5 0 -7 5 -4 10 3 6 1 10 -4 10 -6 0 -11 7 -11 15 0 8 -4 15 -10 15 -5 0 -10 7 -10 15 0 8 -4 15 -10 15 -5 0 -10 6 -10 14 0 8 -7 17 -16 20 -8 3 -13 10 -9 15 3 6 -4 15 -15 21 -11 6 -18 15 -15 20 3 5 -4 14 -15 20 -11 6 -20 16 -20 23 0 7 -14 23 -30 35 -16 13 -30 28 -30 35 0 16 -141 157 -157 157 -7 0 -22 14 -35 30 -12 17 -28 30 -35 30 -7 0 -17 9 -23 20 -6 11 -15 18 -20 15 -5 -3 -14 4 -20 15 -6 11 -15 18 -21 15 -5 -4 -12 1 -15 9 -3 9 -12 16 -20 16 -8 0 -14 5 -14 10 0 6 -7 10 -15 10 -8 0 -15 5 -15 10 0 6 -7 10 -15 10 -8 0 -15 5 -15 11 0 5 -4 7 -10 4 -5 -3 -10 -1 -10 4 0 6 -7 11 -15 11 -8 0 -15 5 -15 11 0 5 -4 7 -10 4 -5 -3 -10 -1 -10 4 0 6 -3 10 -7 9 -5 -1 -42 16 -83 37 -41 21 -78 38 -82 37 -5 -1 -8 3 -8 10 0 6 -3 8 -6 5 -4 -3 -16 -1 -28 5 -11 7 -30 13 -41 15 -10 2 -23 9 -27 16 -4 6 -8 8 -8 3 0 -5 -7 -3 -15 4 -8 7 -15 9 -15 5 0 -4 -7 -2 -15 5 -8 7 -15 9 -15 5 0 -4 -6 -2 -13 4 -8 6 -16 8 -19 6 -3 -3 -18 0 -34 6 -16 7 -33 11 -38 10 -4 -1 -14 3 -20 9 -7 5 -15 8 -18 5 -2 -3 -20 0 -39 6 -35 10 -50 13 -129 23 -25 3 -65 8 -90 11 -43 5 -6749 13 -6754 7z m6702 -655 c35 -4 68 -10 73 -13 6 -3 20 -7 32 -8 35 -5 91 -18 102 -25 6 -3 13 -6 18 -7 4 -1 9 -3 12 -4 3 -1 10 -4 15 -5 6 -1 11 -3 13 -4 1 -2 13 -5 27 -7 13 -2 28 -10 32 -17 4 -6 8 -8 8 -4 0 4 10 2 23 -5 12 -7 25 -11 30 -10 4 1 7 -3 7 -9 0 -5 5 -7 10 -4 6 3 10 1 10 -5 0 -6 5 -8 10 -5 6 3 10 1 10 -5 0 -6 5 -8 10 -5 6 3 10 2 10 -3 0 -6 11 -13 25 -16 14 -4 25 -11 25 -17 0 -6 5 -7 10 -4 6 3 13 -1 16 -9 3 -9 10 -13 15 -10 5 3 12 -2 15 -10 3 -9 10 -13 15 -10 5 3 12 -2 15 -10 3 -9 12 -16 20 -16 7 0 18 -9 24 -20 6 -11 14 -19 18 -18 9 3 187 -175 184 -184 -1 -4 7 -12 18 -18 11 -6 20 -17 20 -24 0 -8 7 -17 16 -20 8 -3 13 -10 10 -15 -3 -5 1 -12 10 -15 8 -3 13 -10 10 -15 -3 -5 1 -12 10 -15 8 -3 12 -10 9 -16 -3 -5 -2 -10 4 -10 6 0 13 -11 17 -25 3 -14 10 -25 16 -25 5 0 6 -4 3 -10 -3 -5 -1 -10 5 -10 6 0 8 -4 5 -10 -3 -5 -1 -10 5 -10 6 0 8 -4 5 -10 -3 -5 -1 -10 4 -10 6 0 10 -3 9 -7 -1 -5 3 -18 10 -30 7 -13 9 -23 5 -23 -4 0 -2 -4 4 -8 7 -4 15 -19 17 -32 2 -14 5 -26 5 -27 1 -2 1 -6 2 -10 0 -5 5 -14 11 -20 6 -7 7 -13 3 -13 -4 0 -3 -6 3 -12 9 -12 19 -50 28 -103 2 -11 8 -42 14 -70 10 -52 8 -313 -4 -399 -4 -27 -11 -55 -16 -61 -5 -7 -7 -15 -4 -18 3 -3 2 -12 -2 -19 -4 -7 -9 -19 -10 -28 -2 -27 -27 -100 -33 -100 -4 0 -7 -10 -8 -22 -1 -11 -7 -24 -13 -28 -7 -4 -11 -11 -10 -16 2 -15 -33 -84 -42 -84 -5 0 -6 -4 -3 -10 3 -5 1 -10 -5 -10 -6 0 -9 -4 -6 -8 3 -5 -3 -18 -14 -29 -10 -12 -16 -23 -13 -27 3 -3 -2 -8 -11 -12 -9 -3 -13 -10 -10 -15 3 -5 -2 -12 -10 -15 -9 -3 -16 -13 -16 -20 0 -8 -7 -17 -15 -20 -8 -4 -15 -12 -15 -19 0 -8 -14 -23 -31 -35 -16 -12 -28 -25 -24 -28 7 -8 -76 -92 -91 -92 -7 0 -22 -14 -34 -30 -12 -17 -25 -28 -30 -25 -5 3 -14 -4 -20 -15 -6 -11 -17 -20 -25 -20 -8 0 -15 -4 -15 -10 0 -5 -7 -10 -15 -10 -8 0 -15 -4 -15 -10 0 -5 -5 -10 -10 -10 -6 0 -20 -9 -32 -20 -12 -10 -25 -17 -30 -14 -4 3 -8 0 -8 -6 0 -6 -4 -8 -10 -5 -5 3 -10 1 -10 -5 0 -6 -4 -8 -10 -5 -5 3 -10 2 -10 -4 0 -10 -38 -27 -52 -23 -5 1 -8 -3 -8 -9 0 -5 -4 -8 -9 -5 -5 4 -11 2 -13 -4 -1 -5 -12 -11 -23 -13 -11 -2 -30 -8 -42 -15 -12 -7 -32 -14 -45 -16 -13 -3 -24 -5 -25 -7 -2 -1 -7 -3 -13 -4 -5 -1 -12 -4 -15 -5 -3 -1 -9 -4 -15 -5 -5 -1 -12 -4 -15 -5 -3 -1 -8 -3 -12 -4 -5 -1 -14 -5 -20 -9 -20 -13 -123 -46 -123 -40 0 3 -7 0 -15 -7 -8 -7 -15 -9 -15 -5 0 4 -7 2 -15 -5 -8 -7 -15 -9 -15 -5 0 4 -6 2 -13 -4 -8 -6 -17 -8 -20 -4 -4 3 -7 2 -7 -4 0 -5 -18 -15 -41 -22 l-40 -12 8 -237 c10 -292 10 -511 0 -577 -4 -27 -8 -57 -8 -65 -2 -29 -42 -195 -50 -206 -5 -6 -7 -13 -4 -16 5 -5 -28 -109 -42 -131 -4 -6 -9 -21 -10 -32 -2 -10 -8 -22 -14 -26 -6 -3 -11 -10 -10 -15 1 -21 -12 -54 -21 -54 -5 0 -6 -4 -3 -10 3 -5 1 -10 -5 -10 -6 0 -8 -4 -5 -10 3 -5 1 -10 -5 -10 -6 0 -8 -4 -5 -10 3 -6 1 -10 -5 -10 -6 0 -8 -5 -5 -10 3 -5 1 -10 -5 -10 -6 0 -8 -4 -5 -10 3 -6 1 -10 -5 -10 -6 0 -8 -5 -5 -10 3 -5 2 -10 -3 -10 -6 0 -13 -11 -16 -25 -4 -14 -11 -25 -17 -25 -6 0 -8 -4 -5 -8 3 -5 -3 -18 -14 -29 -10 -12 -16 -23 -13 -27 3 -3 -2 -8 -11 -12 -9 -3 -13 -10 -10 -15 3 -5 -2 -12 -10 -15 -9 -3 -13 -10 -10 -15 3 -5 -2 -12 -10 -15 -9 -3 -16 -13 -16 -20 0 -8 -7 -17 -15 -20 -8 -4 -15 -12 -15 -20 0 -7 -9 -18 -20 -24 -11 -6 -18 -15 -15 -19 2 -5 -11 -21 -31 -36 -19 -15 -33 -30 -29 -33 8 -8 -146 -162 -156 -156 -4 2 -20 -11 -34 -31 -15 -19 -31 -32 -36 -30 -4 3 -13 -4 -19 -15 -6 -11 -17 -20 -24 -20 -8 0 -16 -7 -20 -15 -3 -8 -12 -15 -20 -15 -7 0 -17 -7 -20 -16 -3 -8 -10 -13 -15 -10 -5 3 -12 -1 -15 -10 -3 -8 -10 -13 -15 -10 -5 3 -12 -1 -15 -10 -3 -8 -10 -12 -16 -9 -5 3 -10 1 -10 -4 0 -6 -7 -11 -15 -11 -8 0 -15 -5 -15 -11 0 -5 -4 -7 -10 -4 -5 3 -10 2 -10 -4 0 -6 -11 -13 -25 -17 -14 -3 -25 -10 -25 -16 0 -5 -4 -6 -10 -3 -5 3 -10 1 -10 -5 0 -6 -4 -8 -10 -5 -5 3 -10 1 -10 -5 0 -6 -4 -8 -10 -5 -5 3 -10 1 -10 -5 0 -6 -4 -8 -10 -5 -5 3 -10 1 -10 -5 0 -6 -4 -8 -10 -5 -5 3 -10 1 -10 -5 0 -6 -4 -8 -10 -5 -5 3 -10 2 -10 -3 0 -9 -48 -26 -59 -22 -2 1 -7 -3 -10 -9 -4 -6 -16 -12 -26 -14 -11 -2 -29 -8 -40 -14 -27 -15 -125 -43 -125 -36 0 3 -6 1 -12 -5 -12 -9 -65 -24 -98 -27 -9 0 -20 -4 -26 -8 -6 -3 -35 -9 -65 -13 -30 -3 -67 -8 -84 -10 -126 -17 -377 -19 -470 -4 -33 6 -67 11 -75 11 -23 1 -194 41 -205 47 -5 4 -17 7 -25 9 -42 6 -100 27 -100 36 0 6 -3 7 -7 4 -3 -4 -12 -2 -20 4 -7 6 -13 8 -13 5 0 -4 -10 -1 -22 6 -13 7 -26 11 -30 10 -5 -1 -8 3 -8 8 0 5 -3 9 -7 8 -16 -3 -63 15 -63 24 0 5 -4 6 -10 3 -5 -3 -10 -1 -10 5 0 6 -4 8 -10 5 -5 -3 -10 -1 -10 5 0 6 -4 8 -10 5 -5 -3 -10 -2 -10 2 0 5 -16 15 -35 22 -19 7 -35 17 -35 22 0 6 -4 7 -10 4 -5 -3 -10 -1 -10 4 0 6 -7 11 -15 11 -8 0 -15 5 -15 11 0 5 -5 7 -10 4 -6 -3 -13 1 -16 9 -3 9 -10 14 -14 11 -4 -2 -19 6 -33 19 -14 13 -28 21 -31 19 -3 -3 -8 2 -12 11 -3 9 -13 16 -20 16 -8 0 -17 7 -20 15 -4 8 -12 15 -19 15 -7 0 -20 11 -29 25 -9 14 -21 23 -25 20 -5 -2 -26 16 -46 41 -20 25 -40 43 -43 39 -8 -7 -62 46 -62 61 0 7 -20 30 -45 51 -25 20 -45 43 -45 50 0 7 -9 17 -20 23 -11 6 -20 17 -20 25 0 8 -9 19 -20 25 -11 6 -18 15 -15 21 4 5 -1 12 -9 15 -9 3 -16 12 -16 19 0 7 -7 16 -16 19 -8 3 -13 10 -10 15 3 5 -1 12 -10 15 -8 3 -12 10 -9 16 3 5 1 10 -4 10 -6 0 -11 7 -11 15 0 8 -5 15 -12 15 -6 0 -9 3 -5 6 3 3 -3 15 -13 27 -11 11 -17 24 -14 29 3 4 1 8 -4 8 -9 0 -37 50 -34 63 1 4 -3 7 -9 7 -5 0 -7 5 -4 10 3 6 2 10 -4 10 -6 0 -13 11 -17 25 -3 14 -10 25 -16 25 -5 0 -6 4 -3 10 3 5 1 10 -6 10 -7 0 -10 3 -6 6 3 3 -3 15 -13 27 -11 11 -17 24 -14 29 3 4 0 8 -6 8 -6 0 -8 5 -5 10 3 5 2 10 -4 10 -6 0 -13 11 -17 25 -3 14 -10 25 -16 25 -5 0 -6 5 -3 10 3 6 1 10 -6 10 -7 0 -10 3 -6 6 3 3 -3 15 -13 27 -11 11 -17 24 -14 29 7 11 -49 5 -155 -17 -41 -8 -77 -13 -79 -10 -3 2 -13 0 -22 -5 -10 -5 -39 -12 -64 -14 -25 -3 -50 -7 -54 -10 -5 -3 -31 -8 -58 -12 -27 -3 -65 -8 -84 -12 -49 -8 -314 -8 -379 1 -30 4 -60 12 -66 17 -7 6 -15 7 -18 4 -3 -3 -12 -2 -19 2 -7 4 -19 9 -28 10 -27 2 -100 27 -100 33 0 4 -10 8 -22 8 -13 1 -24 7 -26 13 -2 5 -8 8 -13 4 -5 -3 -9 0 -9 5 0 6 -3 10 -7 9 -13 -4 -73 24 -73 34 0 5 -5 6 -10 3 -6 -3 -10 -1 -10 5 0 6 -4 9 -8 6 -5 -3 -18 4 -30 14 -12 11 -26 20 -32 20 -5 0 -10 5 -10 10 0 6 -7 10 -15 10 -8 0 -15 5 -15 10 0 6 -7 10 -15 10 -8 0 -19 9 -25 20 -6 11 -15 18 -20 15 -5 -3 -18 8 -30 25 -12 16 -27 30 -34 30 -15 0 -88 74 -81 82 4 3 -10 18 -29 33 -20 15 -33 31 -31 36 3 4 -4 13 -15 19 -11 6 -18 15 -15 21 4 5 -1 12 -9 15 -9 3 -16 12 -16 20 0 8 -4 14 -10 14 -5 0 -10 7 -10 15 0 8 -5 15 -11 15 -5 0 -7 5 -4 10 3 6 1 10 -4 10 -6 0 -11 7 -11 15 0 8 -5 15 -11 15 -5 0 -7 5 -4 10 3 6 1 10 -5 10 -6 0 -8 5 -5 10 3 6 1 10 -5 10 -6 0 -8 5 -5 10 3 6 1 10 -5 10 -6 0 -8 4 -5 10 3 6 1 10 -5 10 -6 0 -8 4 -5 10 3 6 1 10 -4 10 -6 0 -10 3 -9 8 1 4 -3 17 -10 30 -7 12 -10 22 -6 22 3 0 1 6 -5 13 -6 8 -8 17 -4 20 3 4 2 7 -4 7 -8 0 -30 57 -39 103 -1 4 -3 9 -4 12 -1 3 -4 10 -5 15 -1 6 -4 12 -5 15 -1 3 -4 10 -5 15 -1 6 -4 13 -5 18 -1 4 -2 10 -1 15 0 4 -3 7 -8 7 -7 0 -29 61 -37 103 -1 4 -3 9 -4 12 -1 3 -4 10 -5 15 -1 6 -4 12 -5 15 -1 3 -4 10 -5 15 -1 6 -4 12 -5 15 -1 3 -3 8 -5 13 -1 4 -9 24 -19 45 -15 34 -20 38 -44 33 -15 -3 -81 -8 -147 -11 -66 -3 -151 -8 -190 -11 -188 -14 -324 -16 -375 -5 -30 6 -64 13 -75 15 -53 9 -91 19 -102 28 -7 6 -13 7 -13 3 0 -4 -7 -2 -15 5 -8 7 -15 9 -15 6 0 -4 -6 -4 -12 1 -7 4 -22 9 -33 10 -10 2 -23 9 -27 16 -4 6 -8 9 -8 4 0 -4 -15 0 -32 10 -18 9 -36 16 -40 15 -5 -1 -8 3 -8 9 0 5 -4 7 -10 4 -5 -3 -10 -1 -10 5 0 6 -4 9 -8 6 -5 -3 -18 3 -29 14 -12 10 -24 16 -27 13 -3 -4 -6 -1 -6 6 0 7 -5 9 -10 6 -6 -3 -13 1 -16 9 -3 9 -10 13 -15 10 -5 -3 -12 2 -15 10 -3 9 -10 13 -15 10 -5 -3 -12 2 -15 10 -3 9 -12 16 -20 16 -7 0 -18 9 -24 20 -6 11 -14 19 -18 18 -9 -3 -187 175 -184 184 1 4 -7 12 -18 18 -11 6 -20 17 -20 24 0 8 -7 17 -16 20 -8 3 -13 10 -10 15 3 5 -1 12 -10 15 -8 3 -13 10 -10 15 3 5 -1 12 -10 15 -8 3 -12 10 -9 16 3 5 2 10 -3 10 -9 0 -37 50 -34 63 1 4 -3 7 -9 7 -5 0 -7 5 -4 10 3 6 1 10 -5 10 -6 0 -8 5 -5 10 3 6 1 10 -4 10 -6 0 -10 3 -9 8 1 4 -3 17 -10 30 -7 12 -9 22 -5 22 4 0 2 4 -4 8 -7 4 -15 19 -17 32 -2 14 -5 26 -5 28 -1 1 -1 5 -2 10 0 4 -5 13 -11 20 -6 6 -7 12 -3 12 4 0 3 6 -3 13 -9 11 -20 50 -28 102 -2 11 -8 41 -13 66 -13 59 -13 319 0 378 5 25 11 55 13 66 7 43 19 90 25 100 3 6 6 13 7 18 1 4 3 9 4 12 1 3 4 10 5 15 1 6 3 11 4 13 2 1 5 13 7 27 2 13 9 27 15 31 6 3 10 8 9 10 -4 11 13 59 22 59 5 0 6 5 3 10 -3 6 -1 10 5 10 6 0 8 5 5 10 -3 6 -1 10 5 10 6 0 8 5 5 10 -3 6 -2 10 3 10 6 0 13 11 16 25 4 14 11 25 17 25 6 0 7 5 4 10 -3 6 1 13 9 16 9 3 13 10 10 15 -3 5 2 12 10 15 9 3 13 10 10 15 -3 5 2 12 10 15 9 3 16 12 16 20 0 7 9 18 20 24 11 6 19 14 18 18 -3 9 175 187 184 184 4 -1 12 7 18 18 6 11 17 20 24 20 8 0 17 7 20 16 3 8 10 13 15 10 5 -3 12 1 15 10 3 8 10 13 15 10 5 -3 12 1 15 10 3 8 10 12 16 9 5 -3 10 -2 10 4 0 6 11 13 25 17 14 3 25 10 25 16 0 5 5 6 10 3 6 -3 10 -1 10 5 0 6 5 8 10 5 6 -3 10 -1 10 5 0 6 5 8 10 5 6 -3 10 -1 10 4 0 6 3 10 8 9 4 -1 17 3 30 10 12 7 22 9 22 5 0 -4 4 -2 8 4 4 7 19 15 32 17 14 2 26 5 28 7 1 1 7 3 12 4 6 1 12 4 15 5 3 1 8 3 13 4 4 1 12 4 17 7 10 6 57 18 100 25 11 2 40 8 65 13 25 5 74 9 109 10 36 1 67 3 70 6 7 8 6489 0 6559 -8z"/>
 <path d="M3350 7028 c-10 -4 -36 -9 -57 -12 -38 -5 -74 -12 -83 -17 -3 -1 -9 -3 -15 -4 -5 -2 -13 -4 -17 -5 -5 -1 -11 -3 -15 -4 -5 -1 -19 -8 -33 -16 -14 -7 -26 -13 -27 -12 -6 4 -120 -55 -137 -70 -11 -10 -25 -18 -32 -18 -6 0 -14 -7 -18 -15 -3 -8 -10 -15 -15 -15 -12 0 -126 -113 -123 -122 1 -4 -7 -12 -18 -18 -11 -6 -18 -15 -15 -21 4 -5 -1 -12 -9 -15 -9 -3 -14 -9 -11 -14 2 -4 -4 -16 -15 -27 -10 -12 -16 -24 -13 -27 4 -3 1 -6 -6 -6 -7 0 -9 -4 -6 -10 3 -5 1 -10 -5 -10 -6 0 -8 -4 -5 -10 3 -5 1 -10 -6 -10 -7 0 -9 -3 -6 -6 3 -4 1 -16 -5 -28 -7 -11 -13 -25 -14 -31 -1 -5 -12 -41 -24 -80 -31 -99 -35 -145 -33 -370 2 -206 4 -243 17 -263 4 -7 5 -16 1 -21 -3 -5 0 -13 6 -16 5 -4 8 -13 5 -21 -3 -7 -1 -16 5 -19 5 -4 7 -10 4 -15 -3 -5 -1 -11 5 -15 6 -4 8 -10 5 -15 -3 -5 -1 -11 5 -15 6 -4 8 -11 5 -16 -4 -5 -2 -9 3 -9 9 0 27 -47 24 -62 -1 -5 2 -8 6 -8 10 0 37 -50 34 -62 -1 -5 3 -8 8 -8 6 0 10 -7 10 -15 0 -8 5 -15 10 -15 6 0 10 -7 10 -15 0 -8 5 -15 10 -15 6 0 13 -7 17 -15 7 -20 126 -140 135 -137 4 1 12 -7 18 -18 6 -11 15 -18 20 -15 5 3 13 -3 19 -12 6 -10 11 -13 11 -8 0 7 3 7 8 0 7 -10 112 -63 122 -62 3 0 16 -6 30 -13 14 -8 28 -15 33 -16 4 -1 8 -2 10 -4 1 -1 11 -3 22 -5 11 -1 54 -10 95 -20 104 -23 302 -30 430 -15 134 16 174 23 200 33 8 4 26 9 40 11 14 3 26 5 28 7 1 1 7 3 12 4 6 1 12 4 15 5 3 1 8 3 13 4 4 1 17 7 28 14 12 6 24 8 28 5 3 -3 6 -2 6 4 0 10 46 28 63 25 4 -1 7 3 7 9 0 5 5 7 10 4 6 -3 10 -1 10 5 0 6 4 9 9 6 18 -11 21 29 21 249 l0 223 -40 4 c-34 3 -43 0 -56 -20 -8 -12 -19 -20 -24 -17 -5 3 -14 -4 -20 -15 -6 -11 -17 -20 -24 -20 -8 0 -17 -7 -20 -16 -3 -8 -10 -13 -15 -10 -5 3 -12 -1 -15 -10 -3 -8 -10 -13 -15 -10 -5 3 -12 -1 -15 -10 -3 -8 -10 -12 -16 -9 -5 3 -10 2 -10 -3 0 -7 -93 -56 -109 -57 -3 -1 -16 -6 -29 -13 -12 -7 -37 -16 -55 -19 -52 -10 -228 -15 -246 -7 -9 4 -20 8 -26 9 -5 1 -13 3 -17 5 -5 1 -12 4 -18 5 -5 1 -12 4 -15 5 -3 1 -8 3 -12 4 -24 4 -73 30 -73 38 0 5 -4 7 -9 3 -6 -3 -14 3 -20 12 -6 10 -11 14 -11 9 0 -9 -93 84 -94 94 -1 3 -11 16 -23 29 -12 13 -20 28 -17 33 3 4 0 8 -6 8 -6 0 -8 5 -5 10 3 6 1 10 -4 10 -6 0 -10 3 -9 8 1 4 -4 18 -12 32 -7 14 -13 27 -13 30 0 3 -3 15 -8 28 -32 84 -31 418 1 457 5 6 7 14 4 18 -3 3 0 16 7 29 7 12 12 26 11 31 -1 4 3 7 9 7 5 0 7 5 4 10 -3 6 -1 10 5 10 6 0 8 5 5 10 -3 6 -1 10 5 10 6 0 8 5 5 10 -3 6 -1 10 5 10 6 0 9 4 5 9 -3 6 3 14 12 20 10 6 15 11 11 11 -10 0 102 110 113 110 5 0 9 5 9 11 0 5 5 7 10 4 6 -3 10 -2 10 3 0 8 53 36 70 37 3 0 11 4 17 8 7 4 27 11 45 14 51 10 261 9 283 -1 11 -5 26 -8 33 -7 6 1 12 -3 12 -9 0 -5 3 -9 8 -9 4 1 10 0 15 -1 4 -1 11 -3 15 -4 21 -3 92 -40 92 -48 0 -5 5 -6 10 -3 6 3 10 1 10 -4 0 -6 7 -11 15 -11 8 0 15 -5 15 -11 0 -5 5 -7 10 -4 6 3 13 -1 16 -9 3 -9 12 -16 20 -16 8 0 14 -5 14 -10 0 -6 11 -15 25 -20 14 -5 25 -14 25 -19 0 -14 59 -41 92 -41 l28 0 0 236 c0 154 -3 233 -10 229 -5 -3 -10 -1 -10 4 0 6 -3 10 -7 9 -15 -3 -63 14 -63 23 0 5 -3 8 -7 7 -15 -3 -63 14 -63 23 0 5 -3 8 -7 7 -13 -4 -103 24 -109 33 -2 4 -11 6 -18 3 -8 -3 -17 0 -21 5 -3 6 -11 9 -16 6 -5 -4 -15 -3 -21 1 -7 5 -19 9 -28 10 -8 1 -53 7 -100 14 -86 12 -355 11 -390 -2z"/>
 <path d="M7210 7037 c-3 -3 -32 -8 -65 -10 -33 -3 -94 -15 -135 -27 -41 -12 -79 -23 -85 -24 -5 -1 -20 -7 -31 -14 -12 -6 -24 -8 -28 -5 -3 3 -6 1 -6 -6 0 -7 -4 -9 -10 -6 -5 3 -10 1 -10 -5 0 -6 -4 -8 -10 -5 -5 3 -10 1 -10 -5 0 -6 -4 -8 -10 -5 -5 3 -10 1 -10 -5 0 -6 -4 -8 -10 -5 -5 3 -10 1 -10 -4 0 -6 -7 -11 -15 -11 -8 0 -15 -5 -15 -11 0 -5 -5 -7 -10 -4 -6 3 -13 -1 -16 -9 -3 -9 -12 -16 -19 -16 -7 0 -20 -11 -29 -25 -9 -14 -20 -23 -25 -21 -10 7 -73 -58 -65 -66 3 -4 -6 -14 -20 -23 -14 -10 -23 -21 -20 -26 3 -5 -2 -12 -10 -15 -9 -3 -16 -12 -16 -20 0 -8 -4 -14 -10 -14 -5 0 -10 -7 -10 -15 0 -8 -5 -15 -11 -15 -5 0 -7 -4 -4 -10 3 -5 1 -10 -5 -10 -6 0 -8 -4 -5 -10 3 -5 1 -10 -5 -10 -6 0 -8 -4 -5 -10 3 -5 1 -10 -5 -10 -6 0 -8 -4 -5 -10 3 -5 2 -10 -2 -10 -5 0 -9 -10 -10 -22 -1 -11 -8 -25 -15 -29 -7 -5 -9 -9 -4 -9 5 0 4 -6 -2 -12 -6 -7 -11 -16 -11 -20 -1 -5 -1 -9 -2 -10 0 -2 -2 -10 -4 -18 -1 -8 -11 -53 -21 -100 -25 -120 -25 -385 0 -540 1 -9 6 -21 10 -28 4 -7 5 -16 2 -19 -3 -3 -2 -11 3 -17 8 -10 30 -73 35 -99 4 -21 61 -132 71 -139 7 -5 7 -8 0 -8 -5 0 -2 -5 8 -11 9 -6 15 -14 12 -19 -3 -4 2 -11 11 -14 8 -3 13 -10 10 -15 -3 -5 6 -16 20 -26 14 -9 23 -19 20 -23 -9 -8 65 -82 81 -82 7 0 18 -9 25 -20 7 -11 19 -20 26 -20 7 0 15 -7 18 -15 4 -8 9 -13 14 -10 4 2 16 -4 27 -15 12 -10 24 -16 27 -13 3 4 6 1 6 -6 0 -7 5 -9 10 -6 6 3 10 1 10 -5 0 -6 5 -8 10 -5 6 3 10 1 10 -5 0 -6 5 -8 10 -5 6 3 10 1 10 -6 0 -7 3 -9 6 -6 4 3 16 1 28 -5 11 -7 28 -13 37 -15 9 -1 29 -8 45 -14 16 -7 34 -13 39 -14 6 -1 12 -3 15 -4 3 -2 16 -4 30 -7 14 -2 39 -6 55 -10 40 -7 401 -8 445 0 19 3 63 12 98 20 34 7 62 11 62 9 0 -3 6 -1 13 4 11 10 74 33 100 37 7 1 22 7 33 14 12 6 24 8 28 5 3 -3 6 -1 6 5 0 7 3 11 8 10 4 0 25 7 47 18 l40 19 0 235 0 236 -30 -4 c-16 -2 -37 -6 -45 -9 -8 -4 -18 -7 -22 -7 -4 -1 -15 -11 -23 -24 -9 -12 -20 -20 -25 -17 -5 3 -14 -4 -20 -15 -6 -11 -15 -18 -19 -15 -5 3 -12 -2 -15 -11 -3 -8 -10 -13 -15 -10 -5 3 -12 -1 -15 -10 -3 -8 -10 -12 -16 -9 -5 3 -10 1 -10 -4 0 -6 -7 -11 -15 -11 -8 0 -15 -5 -15 -11 0 -5 -4 -7 -10 -4 -5 3 -10 1 -10 -5 0 -6 -4 -8 -10 -5 -5 3 -10 1 -10 -5 0 -6 -4 -8 -10 -5 -5 3 -10 1 -10 -4 0 -6 -3 -10 -7 -9 -5 1 -18 -3 -30 -10 -13 -7 -23 -10 -23 -6 0 3 -7 1 -15 -6 -8 -7 -15 -9 -15 -5 0 4 -7 1 -16 -6 -40 -33 -350 -14 -362 21 -2 6 -8 8 -13 4 -5 -3 -9 0 -9 6 0 6 -4 8 -10 5 -5 -3 -10 -1 -10 5 0 6 -5 8 -10 5 -6 -3 -13 1 -16 9 -3 9 -10 14 -15 11 -4 -3 -13 4 -19 15 -6 11 -15 18 -19 16 -10 -7 -63 48 -55 56 3 4 -4 11 -15 18 -12 6 -19 15 -16 21 4 5 1 9 -4 9 -6 0 -11 7 -11 15 0 8 -5 15 -11 15 -5 0 -7 5 -4 10 3 6 1 10 -5 10 -6 0 -9 4 -6 9 4 5 2 11 -3 13 -5 1 -11 12 -13 23 -1 11 -6 22 -10 25 -3 3 -9 21 -13 40 -3 19 -9 46 -12 60 -4 14 -6 93 -7 175 0 143 6 214 21 239 4 6 9 20 10 31 2 11 8 22 13 23 6 2 8 8 4 13 -3 5 0 9 6 9 6 0 8 5 5 10 -3 6 -1 10 5 10 6 0 8 5 5 10 -3 6 -1 10 5 10 6 0 8 5 5 10 -3 6 -1 10 4 10 6 0 11 6 11 14 0 8 7 17 16 20 9 4 14 9 10 13 -8 8 53 73 68 73 6 0 22 12 35 25 12 14 27 22 32 19 5 -3 9 0 9 6 0 6 5 8 10 5 6 -3 10 -1 10 4 0 6 3 10 8 9 4 -1 17 3 29 10 12 7 26 11 30 11 4 -1 17 2 28 7 23 10 233 11 281 2 18 -4 49 -14 70 -24 22 -9 42 -16 47 -16 4 1 7 -3 7 -9 0 -5 5 -7 10 -4 6 3 10 1 10 -5 0 -6 5 -8 10 -5 6 3 10 1 10 -5 0 -6 4 -9 8 -6 5 3 18 -3 29 -14 12 -10 23 -16 27 -13 3 3 8 -2 12 -11 3 -9 10 -13 15 -10 5 3 12 -2 15 -10 3 -9 12 -16 20 -16 7 0 18 -9 24 -20 6 -11 17 -20 24 -20 8 0 20 -10 28 -21 10 -16 25 -22 53 -23 l40 -1 -3 234 c-3 222 -4 233 -22 238 -11 3 -20 10 -20 15 0 5 -4 6 -10 3 -5 -3 -10 -1 -10 6 0 7 -3 9 -6 6 -4 -3 -16 -1 -28 5 -11 7 -24 11 -28 10 -5 -1 -8 2 -8 6 0 4 -10 8 -22 9 -11 1 -25 8 -29 15 -5 7 -9 9 -9 4 0 -5 -7 -2 -17 5 -9 8 -18 13 -20 12 -1 -2 -6 -2 -10 -2 -5 1 -12 2 -18 3 -19 3 -120 28 -135 33 -8 3 -26 7 -40 9 -45 7 -355 16 -360 11z"/>
 <path d="M4570 6049 l0 -950 493 2 c442 1 500 3 567 20 41 10 76 16 79 14 2 -3 10 0 18 6 7 6 13 8 13 4 0 -4 7 -2 15 5 8 7 15 9 15 4 0 -5 4 -4 8 1 7 10 97 55 108 54 3 0 12 8 20 18 7 10 14 14 14 9 0 -5 9 3 21 18 11 14 24 24 28 21 10 -6 43 29 35 38 -3 3 6 13 20 22 14 10 24 21 21 25 -2 4 4 16 15 27 10 12 16 24 13 27 -4 3 -1 6 6 6 7 0 9 5 6 10 -3 6 -1 10 5 10 6 0 9 4 5 9 -3 5 -1 12 5 16 6 4 8 10 5 15 -3 5 -1 11 5 15 6 4 8 11 5 16 -4 5 -3 15 1 21 12 19 14 43 13 163 -1 104 -5 164 -10 175 -1 3 -3 10 -4 15 -1 6 -7 24 -14 40 -7 17 -13 38 -14 48 -1 9 -5 17 -10 17 -4 0 -5 5 -2 10 3 6 1 10 -5 10 -6 0 -8 5 -5 10 3 6 1 10 -5 10 -6 0 -8 5 -5 10 3 6 1 10 -5 10 -6 0 -9 4 -6 9 3 5 -1 12 -10 15 -9 4 -14 9 -11 12 3 4 -4 15 -16 25 -12 10 -18 18 -13 19 6 0 -5 16 -24 35 -18 19 -37 32 -41 29 -5 -2 -16 7 -25 21 -9 14 -23 25 -30 25 -8 0 -14 5 -14 10 0 6 -7 10 -15 10 -8 0 -15 5 -15 10 0 6 -7 10 -15 10 -8 0 -15 5 -15 11 0 5 -4 7 -10 4 -5 -3 -10 -1 -10 5 0 6 -4 8 -10 5 -5 -3 -10 -1 -10 4 0 6 -3 10 -7 9 -5 -1 -37 8 -73 20 -110 37 -167 43 -397 42 l-223 -1 0 311 0 310 -245 0 -245 0 0 -951z m807 -39 c12 0 25 -5 28 -10 4 -6 10 -8 15 -5 5 3 20 0 32 -7 13 -7 26 -11 30 -10 9 2 93 -81 91 -90 -2 -5 2 -8 8 -8 5 0 7 -4 4 -10 -3 -5 -1 -10 6 -10 7 0 9 -3 6 -7 -4 -3 -1 -13 6 -21 17 -21 17 -194 -1 -200 -6 -2 -10 -8 -6 -13 3 -5 0 -9 -5 -9 -6 0 -10 -3 -9 -7 3 -10 -71 -83 -82 -83 -5 0 -10 -4 -12 -10 -1 -5 -12 -11 -23 -13 -11 -1 -26 -6 -32 -10 -16 -10 -75 -15 -240 -21 l-133 -5 0 280 0 280 148 -5 c81 -3 157 -6 169 -6z"/>
 </g>

</svg>