<!DOCTYPE svg PUBLIC "-//W3C//DTD SVG 20010904//EN" "http://www.w3.org/TR/2001/REC-SVG-20010904/DTD/svg10.dtd">
<svg version="1.0" xmlns="http://www.w3.org/2000/svg" width="1024px" height="1024px" viewBox="0 0 10240 10240" preserveAspectRatio="xMidYMid meet">
<g id="layer101" fill="#000000" stroke="none">
 <path d="M1645 8305 c-844 -124 -1510 -792 -1630 -1636 -19 -134 -19 -404 0 -538 59 -412 251 -796 545 -1091 359 -358 853 -565 1339 -559 l134 1 23 -61 c61 -163 196 -390 313 -531 65 -77 179 -200 187 -200 2 0 36 -27 75 -59 260 -218 590 -364 940 -416 134 -19 383 -19 509 -1 52 8 96 11 98 7 1 -5 34 -56 72 -115 185 -284 372 -487 625 -677 357 -270 776 -440 1215 -494 144 -17 446 -20 588 -4 370 40 760 174 1072 369 322 200 629 507 828 826 246 396 387 884 381 1323 l-2 144 63 24 c238 89 522 279 697 466 279 298 450 651 508 1048 19 135 19 401 0 538 -121 850 -787 1514 -1640 1636 -143 21 -6800 20 -6940 0z m6905 -648 c395 -82 723 -326 903 -674 95 -183 140 -371 139 -583 0 -341 -128 -648 -371 -890 -177 -176 -299 -243 -679 -375 l-253 -88 6 -206 c4 -113 10 -249 14 -301 30 -396 -118 -867 -382 -1215 -282 -371 -709 -637 -1160 -724 -758 -146 -1531 182 -1953 829 -34 52 -115 190 -179 305 -65 116 -119 211 -119 212 -1 1 -114 -18 -251 -43 -309 -55 -400 -64 -535 -53 -438 38 -827 306 -1021 704 -27 55 -89 215 -138 355 l-89 255 -44 -3 c-23 -1 -151 -9 -283 -18 -291 -20 -362 -19 -487 7 -436 88 -801 405 -952 827 -92 259 -92 585 0 844 38 105 109 240 174 327 72 97 168 201 186 201 8 0 14 5 14 10 0 17 153 124 246 172 154 79 295 121 464 137 47 5 1566 8 3375 7 3086 -2 3295 -3 3375 -19z"/>
 <path d="M3375 7029 c-87 -11 -197 -41 -278 -75 -52 -22 -97 -49 -215 -129 -8 -5 -31 -27 -51 -49 -104 -113 -175 -244 -218 -402 -25 -93 -27 -112 -27 -319 0 -194 3 -229 21 -297 80 -287 215 -464 444 -583 301 -156 740 -152 1095 10 l74 34 0 230 0 231 -33 0 c-25 0 -52 -15 -112 -61 -164 -125 -302 -181 -450 -182 -212 0 -375 94 -461 267 -49 101 -64 164 -71 301 -15 318 106 546 330 625 221 78 452 21 681 -166 38 -31 64 -44 85 -44 l31 0 0 228 0 228 -112 48 c-242 102 -482 136 -733 105z"/>
 <path d="M7145 7026 c-362 -60 -603 -247 -714 -553 -53 -143 -66 -229 -65 -423 1 -241 32 -374 132 -557 45 -83 201 -243 284 -291 306 -179 773 -189 1132 -23 46 21 86 38 88 36 2 -2 3 103 3 234 l0 236 -34 -4 c-23 -2 -62 -25 -115 -65 -162 -123 -299 -178 -446 -179 -157 0 -273 44 -370 142 -112 113 -161 254 -162 466 0 157 17 245 67 345 90 179 252 273 465 273 99 -1 189 -22 274 -65 70 -35 161 -95 212 -140 19 -17 52 -34 72 -38 l37 -6 -3 232 -3 232 -110 47 c-61 26 -164 60 -228 77 -99 25 -140 30 -276 33 -105 3 -188 0 -240 -9z"/>
 <path d="M4570 6050 l0 -950 448 0 c491 0 581 6 716 51 115 38 190 84 259 159 97 105 137 217 137 389 0 242 -97 428 -291 557 -153 101 -255 124 -559 124 l-220 0 0 310 0 310 -245 0 -245 0 0 -950z m800 -41 c163 -26 237 -104 247 -260 5 -71 3 -83 -22 -134 -32 -66 -85 -109 -159 -130 -28 -7 -124 -17 -213 -21 l-163 -7 0 282 0 281 123 0 c67 0 151 -5 187 -11z"/>
 </g>

</svg>