<?xml version="1.0" standalone="no"?>
<!DOCTYPE svg PUBLIC "-//W3C//DTD SVG 20010904//EN"
 "http://www.w3.org/TR/2001/REC-SVG-20010904/DTD/svg10.dtd">
<svg version="1.0" xmlns="http://www.w3.org/2000/svg"
 width="952.000000pt" height="952.000000pt" viewBox="0 0 952.000000 952.000000"
 preserveAspectRatio="xMidYMid meet">
<metadata>
Created by potrace 1.11, written by Peter Selinger 2001-2013
</metadata>
<g transform="translate(0.000000,952.000000) scale(0.100000,-0.100000)"
fill="#000000" stroke="none">
<path d="M0 7812 l0 -388 1181 0 c649 1 1184 -1 1189 -4 4 -3 7 -1368 8 -3035
0 -1667 1 -3040 1 -3052 l1 -23 435 0 435 0 2 3057 3 3057 1175 2 c646 0 1180
2 1187 3 8 1 11 104 11 386 l1 385 -2815 0 -2814 0 0 -388z"/>
<path d="M6867 7818 c0 -211 1 -385 2 -388 1 -3 169 -6 375 -6 370 0 374 0
378 20 2 12 3 185 2 386 l0 365 -380 3 -379 2 2 -382z"/>
<path d="M8764 7813 l1 -388 378 0 377 0 0 387 0 388 -378 0 -378 0 0 -387z"/>
</g>
</svg>
