<svg xmlns="http://www.w3.org/2000/svg" xmlns:xlink="http://www.w3.org/1999/xlink" width="754.302" height="600.525" viewBox="0 0 754.302 600.525">
  <defs>
    <linearGradient id="a" x1="130.193" y1="81.745" x2="257.491" y2="147.82" gradientUnits="userSpaceOnUse">
      <stop offset="0.001" stop-color="#38c2da"/>
      <stop offset="0.252" stop-color="#38bad8"/>
      <stop offset="0.641" stop-color="#39a4d1"/>
      <stop offset="1" stop-color="#398aca"/>
    </linearGradient>
    <linearGradient id="b" x1="76.677" y1="91.92" x2="387.19" y2="91.92" gradientUnits="userSpaceOnUse">
      <stop offset="0.001" stop-color="#cbddef"/>
      <stop offset="1" stop-color="#b6bbbf"/>
    </linearGradient>
    <linearGradient id="c" x1="314.016" y1="185.576" x2="441.313" y2="251.651" xlink:href="#a"/>
    <linearGradient id="d" x1="260.5" y1="195.751" x2="571.013" y2="195.751" xlink:href="#a"/>
    <linearGradient id="e" x1="315.792" y1="88.444" x2="443.089" y2="154.519" xlink:href="#a"/>
    <linearGradient id="f" x1="262.276" y1="98.618" x2="572.789" y2="98.618" xlink:href="#b"/>
    <linearGradient id="g" x1="495.529" y1="290.587" x2="622.826" y2="356.662" xlink:href="#a"/>
    <linearGradient id="h" x1="442.013" y1="300.762" x2="752.526" y2="300.762" xlink:href="#a"/>
    <linearGradient id="i" x1="497.305" y1="193.455" x2="624.602" y2="259.53" xlink:href="#a"/>
    <linearGradient id="j" x1="443.789" y1="203.629" x2="754.302" y2="203.629" xlink:href="#a"/>
    <linearGradient id="k" x1="497.305" y1="93.735" x2="624.602" y2="159.81" xlink:href="#a"/>
    <linearGradient id="l" x1="443.789" y1="103.909" x2="754.302" y2="103.909" xlink:href="#b"/>
    <linearGradient id="m" x1="88.027" y1="517.983" x2="47.783" y2="540.959" gradientUnits="userSpaceOnUse">
      <stop offset="0.513" stop-color="#cbddef"/>
      <stop offset="1" stop-color="#b6bbbf"/>
    </linearGradient>
    <linearGradient id="n" x1="0" y1="544.821" x2="55.357" y2="544.821" xlink:href="#b"/>
    <linearGradient id="o" x1="0" y1="520.058" x2="102.456" y2="520.058" xlink:href="#b"/>
    <linearGradient id="p" x1="3" y1="520.058" x2="99.456" y2="520.058" gradientUnits="userSpaceOnUse">
      <stop offset="0.001" stop-color="#38c2da"/>
      <stop offset="0.024" stop-color="#38c0da"/>
      <stop offset="0.666" stop-color="#3999ce"/>
      <stop offset="1" stop-color="#398aca"/>
    </linearGradient>
    <linearGradient id="q" x1="103.852" y1="520.444" x2="104.352" y2="520.444" gradientUnits="userSpaceOnUse">
      <stop offset="0.438" stop-color="#cbddef"/>
      <stop offset="1" stop-color="#b6bbbf"/>
    </linearGradient>
    <linearGradient id="r" x1="29.654" y1="511.887" x2="72.802" y2="511.887" xlink:href="#b"/>
    <linearGradient id="s" x1="32.848" y1="511.887" x2="69.608" y2="511.887" xlink:href="#p"/>
  </defs>
  <title>Upgradibility</title>
  <g>
    <path d="M117.948,297.227q-.87.537-1.759,1.051L59.4,331.066a12.752,12.752,0,0,0,.143,22.168l109.835,61.543c21.331,11.952,21.528,42.584.353,54.81L53.1,536.93" fill="none" stroke="#191919" stroke-miterlimit="10" stroke-width="2" opacity="0.45"/>
    <path d="M60.019,549.715l241.236-139.29q1.419-.819,2.79-1.7" fill="none" stroke="#191919" stroke-miterlimit="10" stroke-width="2" opacity="0.45"/>
    <path d="M511.907,533.166a76.517,76.517,0,0,1-13.476,9.982l-77.808,45.373a32.744,32.744,0,0,1-32.42.324L237.566,505a72.04,72.04,0,0,0-70.805.415L61.233,565.783" fill="none" stroke="#191919" stroke-miterlimit="10" stroke-width="2" opacity="0.45"/>
    <path d="M446.236,477.239l137.821-79.578a24.542,24.542,0,0,1,24.542,0l137.822,79.578a10.329,10.329,0,0,1,0,17.89L607.9,575.113a23.139,23.139,0,0,1-23.138,0L446.236,495.129A10.329,10.329,0,0,1,446.236,477.239Z" fill="#191919" opacity="0.45"/>
    <path d="M264.723,372.228,402.544,292.65a24.542,24.542,0,0,1,24.542,0l137.822,79.578a10.329,10.329,0,0,1,0,17.89L426.384,470.1a23.139,23.139,0,0,1-23.138,0l-88.9-51.329-49.627-28.655A10.329,10.329,0,0,1,264.723,372.228Z" fill="#191919" opacity="0.45"/>
    <path d="M80.9,268.4l137.822-79.578a24.542,24.542,0,0,1,24.542,0L381.085,268.4a10.329,10.329,0,0,1,0,17.89L242.562,366.271a23.139,23.139,0,0,1-23.138,0l-83.243-48.065L80.9,286.287A10.329,10.329,0,0,1,80.9,268.4Z" fill="#191919" opacity="0.45"/>
    <path d="M1.984,566.5,47.1,540.448a8.262,8.262,0,0,1,8.26,0l45.114,26.05a3.967,3.967,0,0,1,0,6.871L55.358,599.418a8.258,8.258,0,0,1-8.26,0L1.984,573.369A3.967,3.967,0,0,1,1.984,566.5Z" fill="#191919" opacity="0.45"/>
    <path d="M150.379,186.812v24.259a68.383,68.383,0,0,1-34.19,59.221L59.4,303.08a12.752,12.752,0,0,0,.143,22.168l109.835,61.543c21.331,11.953,21.528,42.584.353,54.81L53.1,508.944" fill="none" stroke="#008dce" stroke-miterlimit="10" stroke-width="2"/>
    <path d="M60.019,521.729,301.255,382.44a70.54,70.54,0,0,0,35.225-63.5l-.487-14.225" fill="none" stroke="#008dce" stroke-miterlimit="10" stroke-width="2"/>
    <g>
      <path d="M387.19,162.816h0l0-70.9H76.68l0,70.9h0v.108h.007a10.223,10.223,0,0,0,5.157,8.837l138.524,79.983a23.134,23.134,0,0,0,23.138,0l138.523-79.983a10.226,10.226,0,0,0,5.158-8.837h.006Z" fill="url(#a)"/>
      <path d="M240.885,253.039,382.026,172.02a10.227,10.227,0,0,0,5.158-8.837h.006v-.108h0l0-70.9L240.885,177.6" fill="#005592"/>
      <path d="M81.841,82.866,219.663,3.288a24.542,24.542,0,0,1,24.542,0L382.026,82.866a10.329,10.329,0,0,1,0,17.89L243.5,180.74a23.139,23.139,0,0,1-23.138,0L81.841,100.756A10.329,10.329,0,0,1,81.841,82.866Z" fill="url(#b)"/>
      <g>
        <polygon points="99.673 122.2 94.517 119.224 94.517 114.068 99.673 117.045 99.673 122.2" fill="#2373a9"/>
        <polygon points="94.517 114.068 93.536 113.502 93.536 119.638 99.673 123.181 99.673 122.2 94.517 119.224 94.517 114.068" fill="#04496d"/>
        <polygon points="90.909 117.141 85.754 114.164 85.754 109.009 90.909 111.985 90.909 117.141" fill="#2373a9"/>
        <polygon points="85.754 109.009 84.773 108.442 84.773 114.579 90.909 118.122 90.909 117.141 85.754 114.164 85.754 109.009" fill="#04496d"/>
        <polygon points="108.436 127.26 103.28 124.283 103.28 119.128 108.436 122.104 108.436 127.26" fill="#2373a9"/>
        <polygon points="103.28 119.128 102.299 118.561 102.299 124.698 108.436 128.241 108.436 127.26 103.28 124.283 103.28 119.128" fill="#04496d"/>
        <polygon points="99.673 130.786 94.517 127.81 94.517 122.654 99.673 125.631 99.673 130.786" fill="#2373a9"/>
        <polygon points="94.517 122.654 93.536 122.088 93.536 128.224 99.673 131.767 99.673 130.786 94.517 127.81 94.517 122.654" fill="#04496d"/>
        <polygon points="90.909 125.727 85.754 122.75 85.754 117.595 90.909 120.571 90.909 125.727" fill="#2373a9"/>
        <polygon points="85.754 117.595 84.773 117.028 84.773 123.165 90.909 126.708 90.909 125.727 85.754 122.75 85.754 117.595" fill="#04496d"/>
        <polygon points="108.436 135.846 103.28 132.869 103.28 127.714 108.436 130.69 108.436 135.846" fill="#2373a9"/>
        <polygon points="103.28 127.714 102.299 127.147 102.299 133.284 108.436 136.827 108.436 135.846 103.28 132.869 103.28 127.714" fill="#04496d"/>
        <polygon points="99.673 139.372 94.517 136.396 94.517 131.24 99.673 134.217 99.673 139.372" fill="#2373a9"/>
        <polygon points="94.517 131.24 93.536 130.674 93.536 136.81 99.673 140.353 99.673 139.372 94.517 136.396 94.517 131.24" fill="#04496d"/>
        <polygon points="90.909 134.313 85.754 131.336 85.754 126.181 90.909 129.157 90.909 134.313" fill="#2373a9"/>
        <polygon points="85.754 126.181 84.773 125.614 84.773 131.751 90.909 135.294 90.909 134.313 85.754 131.336 85.754 126.181" fill="#04496d"/>
        <polygon points="108.436 144.432 103.28 141.455 103.28 136.3 108.436 139.276 108.436 144.432" fill="#2373a9"/>
        <polygon points="103.28 136.299 102.299 135.733 102.299 141.87 108.436 145.413 108.436 144.432 103.28 141.455 103.28 136.299" fill="#04496d"/>
        <polygon points="99.673 147.958 94.517 144.981 94.517 139.826 99.673 142.802 99.673 147.958" fill="#2373a9"/>
        <polygon points="94.517 139.826 93.536 139.26 93.536 145.396 99.673 148.939 99.673 147.958 94.517 144.981 94.517 139.826" fill="#04496d"/>
        <polygon points="90.909 142.899 85.754 139.922 85.754 134.766 90.909 137.743 90.909 142.899" fill="#2373a9"/>
        <polygon points="85.754 134.766 84.773 134.2 84.773 140.337 90.909 143.879 90.909 142.899 85.754 139.922 85.754 134.766" fill="#04496d"/>
        <polygon points="108.436 153.017 103.28 150.041 103.28 144.885 108.436 147.862 108.436 153.017" fill="#2373a9"/>
        <polygon points="103.28 144.885 102.299 144.319 102.299 150.456 108.436 153.998 108.436 153.017 103.28 150.041 103.28 144.885" fill="#04496d"/>
        <polygon points="99.464 156.524 94.309 153.547 94.309 148.392 99.464 151.368 99.464 156.524" fill="#2373a9"/>
        <polygon points="94.309 148.392 93.328 147.825 93.328 153.962 99.464 157.505 99.464 156.524 94.309 153.547 94.309 148.392" fill="#04496d"/>
        <polygon points="90.701 151.464 85.545 148.488 85.545 143.332 90.701 146.309 90.701 151.464" fill="#2373a9"/>
        <polygon points="85.545 143.332 84.564 142.766 84.564 148.902 90.701 152.445 90.701 151.464 85.545 148.488 85.545 143.332" fill="#04496d"/>
        <polygon points="108.227 161.583 103.072 158.607 103.072 153.451 108.227 156.428 108.227 161.583" fill="#2373a9"/>
        <polygon points="103.072 153.451 102.091 152.885 102.091 159.021 108.227 162.564 108.227 161.583 103.072 158.607 103.072 153.451" fill="#04496d"/>
        <polygon points="99.464 165.442 94.309 162.465 94.309 157.31 99.464 160.286 99.464 165.442" fill="#2373a9"/>
        <polygon points="94.309 157.31 93.328 156.743 93.328 162.88 99.464 166.423 99.464 165.442 94.309 162.465 94.309 157.31" fill="#04496d"/>
        <polygon points="90.701 160.382 85.545 157.406 85.545 152.25 90.701 155.227 90.701 160.382" fill="#2373a9"/>
        <polygon points="85.545 152.25 84.564 151.684 84.564 157.82 90.701 161.363 90.701 160.382 85.545 157.406 85.545 152.25" fill="#04496d"/>
        <polygon points="108.227 170.501 103.072 167.525 103.072 162.369 108.227 165.346 108.227 170.501" fill="#2373a9"/>
        <polygon points="103.072 162.369 102.091 161.803 102.091 167.939 108.227 171.482 108.227 170.501 103.072 167.525 103.072 162.369" fill="#04496d"/>
        <polygon points="99.464 174.36 94.309 171.384 94.309 166.228 99.464 169.205 99.464 174.36" fill="#2373a9"/>
        <polygon points="94.309 166.228 93.328 165.662 93.328 171.798 99.464 175.341 99.464 174.36 94.309 171.384 94.309 166.228" fill="#04496d"/>
        <polygon points="90.701 169.301 85.545 166.324 85.545 161.169 90.701 164.145 90.701 169.301" fill="#2373a9"/>
        <polygon points="85.545 161.169 84.564 160.602 84.564 166.739 90.701 170.282 90.701 169.301 85.545 166.324 85.545 161.169" fill="#04496d"/>
        <polygon points="108.227 179.42 103.072 176.443 103.072 171.288 108.227 174.264 108.227 179.42" fill="#2373a9"/>
        <polygon points="103.072 171.288 102.091 170.721 102.091 176.858 108.227 180.401 108.227 179.42 103.072 176.443 103.072 171.288" fill="#04496d"/>
      </g>
      <g>
        <polygon points="204.956 183.047 199.8 180.07 199.8 174.914 204.956 177.891 204.956 183.047" fill="#2373a9"/>
        <polygon points="199.8 174.914 198.819 174.348 198.819 180.485 204.956 184.028 204.956 183.047 199.8 180.07 199.8 174.914" fill="#04496d"/>
        <polygon points="196.192 177.987 191.037 175.01 191.037 169.855 196.192 172.832 196.192 177.987" fill="#2373a9"/>
        <polygon points="191.037 169.855 190.056 169.289 190.056 175.425 196.192 178.968 196.192 177.987 191.037 175.01 191.037 169.855" fill="#04496d"/>
        <polygon points="213.719 188.106 208.563 185.129 208.563 179.974 213.719 182.95 213.719 188.106" fill="#2373a9"/>
        <polygon points="208.563 179.974 207.582 179.408 207.582 185.544 213.719 189.087 213.719 188.106 208.563 185.129 208.563 179.974" fill="#04496d"/>
        <polygon points="204.956 191.632 199.8 188.656 199.8 183.5 204.956 186.477 204.956 191.632" fill="#2373a9"/>
        <polygon points="199.8 183.5 198.819 182.934 198.819 189.07 204.956 192.613 204.956 191.632 199.8 188.656 199.8 183.5" fill="#04496d"/>
        <polygon points="196.192 186.573 191.037 183.596 191.037 178.441 196.192 181.417 196.192 186.573" fill="#2373a9"/>
        <polygon points="191.037 178.441 190.056 177.874 190.056 184.011 196.192 187.554 196.192 186.573 191.037 183.596 191.037 178.441" fill="#04496d"/>
        <polygon points="213.719 196.692 208.563 193.715 208.563 188.56 213.719 191.536 213.719 196.692" fill="#2373a9"/>
        <polygon points="208.563 188.56 207.582 187.993 207.582 194.13 213.719 197.673 213.719 196.692 208.563 193.715 208.563 188.56" fill="#04496d"/>
        <polygon points="204.956 200.218 199.8 197.242 199.8 192.086 204.956 195.063 204.956 200.218" fill="#2373a9"/>
        <polygon points="199.8 192.086 198.819 191.52 198.819 197.656 204.956 201.199 204.956 200.218 199.8 197.242 199.8 192.086" fill="#04496d"/>
        <polygon points="196.192 195.159 191.037 192.182 191.037 187.027 196.192 190.003 196.192 195.159" fill="#2373a9"/>
        <polygon points="191.037 187.027 190.056 186.46 190.056 192.597 196.192 196.14 196.192 195.159 191.037 192.182 191.037 187.027" fill="#04496d"/>
        <polygon points="213.719 205.278 208.563 202.301 208.563 197.146 213.719 200.122 213.719 205.278" fill="#2373a9"/>
        <polygon points="208.563 197.146 207.582 196.579 207.582 202.716 213.719 206.259 213.719 205.278 208.563 202.301 208.563 197.146" fill="#04496d"/>
        <polygon points="204.956 208.804 199.8 205.828 199.8 200.672 204.956 203.649 204.956 208.804" fill="#2373a9"/>
        <polygon points="199.8 200.672 198.819 200.106 198.819 206.242 204.956 209.785 204.956 208.804 199.8 205.828 199.8 200.672" fill="#04496d"/>
        <polygon points="196.192 203.745 191.037 200.768 191.037 195.613 196.192 198.589 196.192 203.745" fill="#2373a9"/>
        <polygon points="191.037 195.613 190.056 195.046 190.056 201.183 196.192 204.726 196.192 203.745 191.037 200.768 191.037 195.613" fill="#04496d"/>
        <polygon points="213.719 213.864 208.563 210.887 208.563 205.732 213.719 208.708 213.719 213.864" fill="#2373a9"/>
        <polygon points="208.563 205.732 207.582 205.165 207.582 211.302 213.719 214.845 213.719 213.864 208.563 210.887 208.563 205.732" fill="#04496d"/>
        <polygon points="204.747 217.37 199.592 214.393 199.592 209.238 204.747 212.214 204.747 217.37" fill="#2373a9"/>
        <polygon points="199.592 209.238 198.611 208.671 198.611 214.808 204.747 218.351 204.747 217.37 199.592 214.393 199.592 209.238" fill="#04496d"/>
        <polygon points="195.984 212.31 190.828 209.334 190.828 204.178 195.984 207.155 195.984 212.31" fill="#2373a9"/>
        <polygon points="190.828 204.178 189.847 203.612 189.847 209.748 195.984 213.291 195.984 212.31 190.828 209.334 190.828 204.178" fill="#04496d"/>
        <polygon points="213.511 222.429 208.355 219.453 208.355 214.297 213.511 217.274 213.511 222.429" fill="#2373a9"/>
        <polygon points="208.355 214.297 207.374 213.731 207.374 219.867 213.511 223.41 213.511 222.429 208.355 219.453 208.355 214.297" fill="#04496d"/>
        <polygon points="204.747 226.288 199.592 223.312 199.592 218.156 204.747 221.133 204.747 226.288" fill="#2373a9"/>
        <polygon points="199.592 218.156 198.611 217.59 198.611 223.726 204.747 227.269 204.747 226.288 199.592 223.312 199.592 218.156" fill="#04496d"/>
        <polygon points="195.984 221.229 190.828 218.252 190.828 213.097 195.984 216.073 195.984 221.229" fill="#2373a9"/>
        <polygon points="190.828 213.097 189.847 212.53 189.847 218.667 195.984 222.21 195.984 221.229 190.828 218.252 190.828 213.097" fill="#04496d"/>
        <polygon points="213.511 231.348 208.355 228.371 208.355 223.216 213.511 226.192 213.511 231.348" fill="#2373a9"/>
        <polygon points="208.355 223.216 207.374 222.649 207.374 228.786 213.511 232.329 213.511 231.348 208.355 228.371 208.355 223.216" fill="#04496d"/>
        <polygon points="204.747 235.206 199.592 232.23 199.592 227.074 204.747 230.051 204.747 235.206" fill="#2373a9"/>
        <polygon points="199.592 227.074 198.611 226.508 198.611 232.644 204.747 236.187 204.747 235.206 199.592 232.23 199.592 227.074" fill="#04496d"/>
        <polygon points="195.984 230.147 190.828 227.17 190.828 222.015 195.984 224.991 195.984 230.147" fill="#2373a9"/>
        <polygon points="190.828 222.015 189.847 221.448 189.847 227.585 195.984 231.128 195.984 230.147 190.828 227.17 190.828 222.015" fill="#04496d"/>
        <polygon points="213.511 240.266 208.355 237.289 208.355 232.134 213.511 235.11 213.511 240.266" fill="#2373a9"/>
        <polygon points="208.355 232.134 207.374 231.567 207.374 237.704 213.511 241.247 213.511 240.266 208.355 237.289 208.355 232.134" fill="#04496d"/>
      </g>
    </g>
    <g>
      <g>
        <path d="M571.013,266.647h0l0-70.9H260.5l0,70.9h0v.108h.006a10.226,10.226,0,0,0,5.158,8.837l138.523,79.983a23.134,23.134,0,0,0,23.138,0l138.524-79.983a10.223,10.223,0,0,0,5.157-8.837h.007Z" fill="url(#c)"/>
        <path d="M424.708,356.87l141.141-81.019a10.224,10.224,0,0,0,5.157-8.837h.007v-.108h0l0-70.9-146.3,85.416" fill="#005592"/>
        <path d="M265.664,186.7l137.821-79.578a24.542,24.542,0,0,1,24.542,0L565.849,186.7a10.329,10.329,0,0,1,0,17.89L427.325,284.571a23.139,23.139,0,0,1-23.138,0L265.664,204.587A10.329,10.329,0,0,1,265.664,186.7Z" fill="url(#d)"/>
        <g>
          <polygon points="283.495 226.031 278.34 223.055 278.34 217.899 283.495 220.876 283.495 226.031" fill="#2373a9"/>
          <polygon points="278.34 217.899 277.359 217.333 277.359 223.469 283.495 227.012 283.495 226.031 278.34 223.055 278.34 217.899" fill="#04496d"/>
          <polygon points="274.732 220.972 269.576 217.995 269.576 212.84 274.732 215.816 274.732 220.972" fill="#2373a9"/>
          <polygon points="269.576 212.84 268.595 212.273 268.595 218.41 274.732 221.953 274.732 220.972 269.576 217.995 269.576 212.84" fill="#04496d"/>
          <polygon points="292.258 231.091 287.103 228.114 287.103 222.959 292.258 225.935 292.258 231.091" fill="#2373a9"/>
          <polygon points="287.103 222.959 286.122 222.392 286.122 228.529 292.258 232.072 292.258 231.091 287.103 228.114 287.103 222.959" fill="#04496d"/>
          <polygon points="283.495 234.617 278.34 231.641 278.34 226.485 283.495 229.462 283.495 234.617" fill="#2373a9"/>
          <polygon points="278.34 226.485 277.359 225.919 277.359 232.055 283.495 235.598 283.495 234.617 278.34 231.641 278.34 226.485" fill="#04496d"/>
          <polygon points="274.732 229.558 269.576 226.581 269.576 221.426 274.732 224.402 274.732 229.558" fill="#2373a9"/>
          <polygon points="269.576 221.426 268.595 220.859 268.595 226.996 274.732 230.539 274.732 229.558 269.576 226.581 269.576 221.426" fill="#04496d"/>
          <polygon points="292.258 239.677 287.103 236.7 287.103 231.545 292.258 234.521 292.258 239.677" fill="#2373a9"/>
          <polygon points="287.103 231.545 286.122 230.978 286.122 237.115 292.258 240.658 292.258 239.677 287.103 236.7 287.103 231.545" fill="#04496d"/>
          <polygon points="283.495 243.203 278.34 240.227 278.34 235.071 283.495 238.048 283.495 243.203" fill="#2373a9"/>
          <polygon points="278.34 235.071 277.359 234.505 277.359 240.641 283.495 244.184 283.495 243.203 278.34 240.227 278.34 235.071" fill="#04496d"/>
          <polygon points="274.732 238.144 269.576 235.167 269.576 230.012 274.732 232.988 274.732 238.144" fill="#2373a9"/>
          <polygon points="269.576 230.012 268.595 229.445 268.595 235.582 274.732 239.125 274.732 238.144 269.576 235.167 269.576 230.012" fill="#04496d"/>
          <polygon points="292.258 248.263 287.103 245.286 287.103 240.131 292.258 243.107 292.258 248.263" fill="#2373a9"/>
          <polygon points="287.103 240.131 286.122 239.564 286.122 245.701 292.258 249.244 292.258 248.263 287.103 245.286 287.103 240.131" fill="#04496d"/>
          <polygon points="283.495 251.789 278.34 248.813 278.34 243.657 283.495 246.634 283.495 251.789" fill="#2373a9"/>
          <polygon points="278.34 243.657 277.359 243.091 277.359 249.227 283.495 252.77 283.495 251.789 278.34 248.812 278.34 243.657" fill="#04496d"/>
          <polygon points="274.732 246.73 269.576 243.753 269.576 238.597 274.732 241.574 274.732 246.73" fill="#2373a9"/>
          <polygon points="269.576 238.597 268.595 238.031 268.595 244.168 274.732 247.711 274.732 246.73 269.576 243.753 269.576 238.597" fill="#04496d"/>
          <polygon points="292.258 256.849 287.103 253.872 287.103 248.716 292.258 251.693 292.258 256.849" fill="#2373a9"/>
          <polygon points="287.103 248.716 286.122 248.15 286.122 254.287 292.258 257.83 292.258 256.849 287.103 253.872 287.103 248.716" fill="#04496d"/>
          <polygon points="283.287 260.355 278.131 257.378 278.131 252.223 283.287 255.199 283.287 260.355" fill="#2373a9"/>
          <polygon points="278.131 252.223 277.15 251.656 277.15 257.793 283.287 261.336 283.287 260.355 278.131 257.378 278.131 252.223" fill="#04496d"/>
          <polygon points="274.523 255.295 269.368 252.319 269.368 247.163 274.523 250.14 274.523 255.295" fill="#2373a9"/>
          <polygon points="269.368 247.163 268.387 246.597 268.387 252.733 274.523 256.276 274.523 255.295 269.368 252.319 269.368 247.163" fill="#04496d"/>
          <polygon points="292.05 265.414 286.894 262.438 286.894 257.282 292.05 260.259 292.05 265.414" fill="#2373a9"/>
          <polygon points="286.894 257.282 285.913 256.716 285.913 262.852 292.05 266.395 292.05 265.414 286.894 262.438 286.894 257.282" fill="#04496d"/>
          <polygon points="283.287 269.273 278.131 266.296 278.131 261.141 283.287 264.117 283.287 269.273" fill="#2373a9"/>
          <polygon points="278.131 261.141 277.15 260.574 277.15 266.711 283.287 270.254 283.287 269.273 278.131 266.296 278.131 261.141" fill="#04496d"/>
          <polygon points="274.523 264.213 269.368 261.237 269.368 256.081 274.523 259.058 274.523 264.213" fill="#2373a9"/>
          <polygon points="269.368 256.081 268.387 255.515 268.387 261.652 274.523 265.194 274.523 264.213 269.368 261.237 269.368 256.081" fill="#04496d"/>
          <polygon points="292.05 274.332 286.894 271.356 286.894 266.2 292.05 269.177 292.05 274.332" fill="#2373a9"/>
          <polygon points="286.894 266.2 285.913 265.634 285.913 271.77 292.05 275.313 292.05 274.332 286.894 271.356 286.894 266.2" fill="#04496d"/>
          <polygon points="283.287 278.191 278.131 275.215 278.131 270.059 283.287 273.036 283.287 278.191" fill="#2373a9"/>
          <polygon points="278.131 270.059 277.15 269.493 277.15 275.629 283.287 279.172 283.287 278.191 278.131 275.215 278.131 270.059" fill="#04496d"/>
          <polygon points="274.523 273.132 269.368 270.155 269.368 265 274.523 267.976 274.523 273.132" fill="#2373a9"/>
          <polygon points="269.368 265 268.387 264.433 268.387 270.57 274.523 274.113 274.523 273.132 269.368 270.155 269.368 265" fill="#04496d"/>
          <polygon points="292.05 283.251 286.894 280.274 286.894 275.119 292.05 278.095 292.05 283.251" fill="#2373a9"/>
          <polygon points="286.894 275.119 285.913 274.552 285.913 280.689 292.05 284.232 292.05 283.251 286.894 280.274 286.894 275.119" fill="#04496d"/>
        </g>
        <g>
          <polygon points="388.778 286.878 383.623 283.901 383.623 278.746 388.778 281.722 388.778 286.878" fill="#2373a9"/>
          <polygon points="383.623 278.745 382.642 278.179 382.642 284.316 388.778 287.859 388.778 286.878 383.623 283.901 383.623 278.745" fill="#04496d"/>
          <polygon points="380.015 281.818 374.859 278.842 374.859 273.686 380.015 276.663 380.015 281.818" fill="#2373a9"/>
          <polygon points="374.859 273.686 373.878 273.12 373.878 279.256 380.015 282.799 380.015 281.818 374.859 278.842 374.859 273.686" fill="#04496d"/>
          <polygon points="397.541 291.937 392.386 288.961 392.386 283.805 397.541 286.782 397.541 291.937" fill="#2373a9"/>
          <polygon points="392.386 283.805 391.405 283.239 391.405 289.375 397.541 292.918 397.541 291.937 392.386 288.961 392.386 283.805" fill="#04496d"/>
          <polygon points="388.778 295.463 383.623 292.487 383.623 287.331 388.778 290.308 388.778 295.463" fill="#2373a9"/>
          <polygon points="383.623 287.331 382.642 286.765 382.642 292.902 388.778 296.444 388.778 295.463 383.623 292.487 383.623 287.331" fill="#04496d"/>
          <polygon points="380.015 290.404 374.859 287.427 374.859 282.272 380.015 285.248 380.015 290.404" fill="#2373a9"/>
          <polygon points="374.859 282.272 373.878 281.706 373.878 287.842 380.015 291.385 380.015 290.404 374.859 287.427 374.859 282.272" fill="#04496d"/>
          <polygon points="397.541 300.523 392.386 297.546 392.386 292.391 397.541 295.367 397.541 300.523" fill="#2373a9"/>
          <polygon points="392.386 292.391 391.405 291.825 391.405 297.961 397.541 301.504 397.541 300.523 392.386 297.546 392.386 292.391" fill="#04496d"/>
          <polygon points="388.778 304.049 383.623 301.073 383.623 295.917 388.778 298.894 388.778 304.049" fill="#2373a9"/>
          <polygon points="383.623 295.917 382.642 295.351 382.642 301.487 388.778 305.03 388.778 304.049 383.623 301.073 383.623 295.917" fill="#04496d"/>
          <polygon points="380.015 298.99 374.859 296.013 374.859 290.858 380.015 293.834 380.015 298.99" fill="#2373a9"/>
          <polygon points="374.859 290.858 373.878 290.291 373.878 296.428 380.015 299.971 380.015 298.99 374.859 296.013 374.859 290.858" fill="#04496d"/>
          <polygon points="397.541 309.109 392.386 306.132 392.386 300.977 397.541 303.953 397.541 309.109" fill="#2373a9"/>
          <polygon points="392.386 300.977 391.405 300.41 391.405 306.547 397.541 310.09 397.541 309.109 392.386 306.132 392.386 300.977" fill="#04496d"/>
          <polygon points="388.778 312.635 383.623 309.659 383.623 304.503 388.778 307.48 388.778 312.635" fill="#2373a9"/>
          <polygon points="383.623 304.503 382.642 303.937 382.642 310.073 388.778 313.616 388.778 312.635 383.623 309.659 383.623 304.503" fill="#04496d"/>
          <polygon points="380.015 307.576 374.859 304.599 374.859 299.444 380.015 302.42 380.015 307.576" fill="#2373a9"/>
          <polygon points="374.859 299.444 373.878 298.877 373.878 305.014 380.015 308.557 380.015 307.576 374.859 304.599 374.859 299.444" fill="#04496d"/>
          <polygon points="397.541 317.695 392.386 314.718 392.386 309.563 397.541 312.539 397.541 317.695" fill="#2373a9"/>
          <polygon points="392.386 309.563 391.405 308.996 391.405 315.133 397.541 318.676 397.541 317.695 392.386 314.718 392.386 309.563" fill="#04496d"/>
          <polygon points="388.57 321.201 383.414 318.224 383.414 313.069 388.57 316.045 388.57 321.201" fill="#2373a9"/>
          <polygon points="383.414 313.069 382.433 312.503 382.433 318.639 388.57 322.182 388.57 321.201 383.414 318.224 383.414 313.069" fill="#04496d"/>
          <polygon points="379.806 316.141 374.651 313.165 374.651 308.009 379.806 310.986 379.806 316.141" fill="#2373a9"/>
          <polygon points="374.651 308.009 373.67 307.443 373.67 313.58 379.806 317.122 379.806 316.141 374.651 313.165 374.651 308.009" fill="#04496d"/>
          <polygon points="397.333 326.26 392.178 323.284 392.178 318.128 397.333 321.105 397.333 326.26" fill="#2373a9"/>
          <polygon points="392.178 318.128 391.197 317.562 391.197 323.699 397.333 327.241 397.333 326.26 392.178 323.284 392.178 318.128" fill="#04496d"/>
          <polygon points="388.57 330.119 383.414 327.143 383.414 321.987 388.57 324.964 388.57 330.119" fill="#2373a9"/>
          <polygon points="383.414 321.987 382.433 321.421 382.433 327.557 388.57 331.1 388.57 330.119 383.414 327.143 383.414 321.987" fill="#04496d"/>
          <polygon points="379.806 325.06 374.651 322.083 374.651 316.928 379.806 319.904 379.806 325.06" fill="#2373a9"/>
          <polygon points="374.651 316.928 373.67 316.361 373.67 322.498 379.806 326.041 379.806 325.06 374.651 322.083 374.651 316.928" fill="#04496d"/>
          <polygon points="397.333 335.179 392.178 332.202 392.178 327.047 397.333 330.023 397.333 335.179" fill="#2373a9"/>
          <polygon points="392.178 327.047 391.197 326.48 391.197 332.617 397.333 336.16 397.333 335.179 392.178 332.202 392.178 327.047" fill="#04496d"/>
          <polygon points="388.57 339.037 383.414 336.061 383.414 330.905 388.57 333.882 388.57 339.037" fill="#2373a9"/>
          <polygon points="383.414 330.905 382.433 330.339 382.433 336.475 388.57 340.018 388.57 339.037 383.414 336.061 383.414 330.905" fill="#04496d"/>
          <polygon points="379.806 333.978 374.651 331.001 374.651 325.846 379.806 328.822 379.806 333.978" fill="#2373a9"/>
          <polygon points="374.651 325.846 373.67 325.279 373.67 331.416 379.806 334.959 379.806 333.978 374.651 331.001 374.651 325.846" fill="#04496d"/>
          <polygon points="397.333 344.097 392.178 341.12 392.178 335.965 397.333 338.941 397.333 344.097" fill="#2373a9"/>
          <polygon points="392.178 335.965 391.197 335.398 391.197 341.535 397.333 345.078 397.333 344.097 392.178 341.12 392.178 335.965" fill="#04496d"/>
        </g>
      </g>
      <g>
        <path d="M572.789,169.514h0l0-70.9H262.279l0,70.9h0v.109h.007a10.221,10.221,0,0,0,5.157,8.836l138.523,79.983a23.136,23.136,0,0,0,23.139,0l138.523-79.983a10.221,10.221,0,0,0,5.157-8.836h.007Z" fill="url(#e)"/>
        <path d="M426.484,259.738l141.141-81.02a10.221,10.221,0,0,0,5.157-8.836h.007v-.109h0l0-70.9-146.3,85.416" fill="#005592"/>
        <path d="M267.44,89.565,405.261,9.987a24.539,24.539,0,0,1,24.543,0L567.625,89.565a10.329,10.329,0,0,1,0,17.89L429.1,187.438a23.141,23.141,0,0,1-23.139,0L267.44,107.455A10.329,10.329,0,0,1,267.44,89.565Z" fill="url(#f)"/>
        <g>
          <polygon points="285.271 128.899 280.116 125.922 280.116 120.767 285.271 123.743 285.271 128.899" fill="#2373a9"/>
          <polygon points="280.116 120.767 279.135 120.2 279.135 126.337 285.271 129.88 285.271 128.899 280.116 125.922 280.116 120.767" fill="#04496d"/>
          <polygon points="276.508 123.839 271.352 120.863 271.352 115.707 276.508 118.684 276.508 123.839" fill="#2373a9"/>
          <polygon points="271.352 115.707 270.371 115.141 270.371 121.277 276.508 124.82 276.508 123.839 271.352 120.863 271.352 115.707" fill="#04496d"/>
          <polygon points="294.035 133.958 288.879 130.982 288.879 125.826 294.035 128.803 294.035 133.958" fill="#2373a9"/>
          <polygon points="288.879 125.826 287.898 125.26 287.898 131.396 294.035 134.939 294.035 133.958 288.879 130.982 288.879 125.826" fill="#04496d"/>
          <polygon points="285.271 137.485 280.116 134.508 280.116 129.352 285.271 132.329 285.271 137.485" fill="#2373a9"/>
          <polygon points="280.116 129.352 279.135 128.786 279.135 134.923 285.271 138.465 285.271 137.485 280.116 134.508 280.116 129.352" fill="#04496d"/>
          <polygon points="276.508 132.425 271.352 129.448 271.352 124.293 276.508 127.269 276.508 132.425" fill="#2373a9"/>
          <polygon points="271.352 124.293 270.371 123.727 270.371 129.863 276.508 133.406 276.508 132.425 271.352 129.448 271.352 124.293" fill="#04496d"/>
          <polygon points="294.035 142.544 288.879 139.567 288.879 134.412 294.035 137.388 294.035 142.544" fill="#2373a9"/>
          <polygon points="288.879 134.412 287.898 133.846 287.898 139.982 294.035 143.525 294.035 142.544 288.879 139.567 288.879 134.412" fill="#04496d"/>
          <polygon points="285.271 146.07 280.116 143.094 280.116 137.938 285.271 140.915 285.271 146.07" fill="#2373a9"/>
          <polygon points="280.116 137.938 279.135 137.372 279.135 143.508 285.271 147.051 285.271 146.07 280.116 143.094 280.116 137.938" fill="#04496d"/>
          <polygon points="276.508 141.011 271.352 138.034 271.352 132.879 276.508 135.855 276.508 141.011" fill="#2373a9"/>
          <polygon points="271.352 132.879 270.371 132.312 270.371 138.449 276.508 141.992 276.508 141.011 271.352 138.034 271.352 132.879" fill="#04496d"/>
          <polygon points="294.035 151.13 288.879 148.153 288.879 142.998 294.035 145.974 294.035 151.13" fill="#2373a9"/>
          <polygon points="288.879 142.998 287.898 142.431 287.898 148.568 294.035 152.111 294.035 151.13 288.879 148.153 288.879 142.998" fill="#04496d"/>
          <polygon points="285.271 154.656 280.116 151.68 280.116 146.524 285.271 149.501 285.271 154.656" fill="#2373a9"/>
          <polygon points="280.116 146.524 279.135 145.958 279.135 152.094 285.271 155.637 285.271 154.656 280.116 151.68 280.116 146.524" fill="#04496d"/>
          <polygon points="276.508 149.597 271.352 146.62 271.352 141.465 276.508 144.441 276.508 149.597" fill="#2373a9"/>
          <polygon points="271.352 141.465 270.371 140.898 270.371 147.035 276.508 150.578 276.508 149.597 271.352 146.62 271.352 141.465" fill="#04496d"/>
          <polygon points="294.035 159.716 288.879 156.739 288.879 151.584 294.035 154.56 294.035 159.716" fill="#2373a9"/>
          <polygon points="288.879 151.584 287.898 151.017 287.898 157.154 294.035 160.697 294.035 159.716 288.879 156.739 288.879 151.584" fill="#04496d"/>
          <polygon points="285.063 163.222 279.907 160.245 279.907 155.09 285.063 158.066 285.063 163.222" fill="#2373a9"/>
          <polygon points="279.907 155.09 278.926 154.524 278.926 160.66 285.063 164.203 285.063 163.222 279.907 160.245 279.907 155.09" fill="#04496d"/>
          <polygon points="276.3 158.163 271.144 155.186 271.144 150.03 276.3 153.007 276.3 158.163" fill="#2373a9"/>
          <polygon points="271.144 150.03 270.163 149.464 270.163 155.601 276.3 159.143 276.3 158.162 271.144 155.186 271.144 150.03" fill="#04496d"/>
          <polygon points="293.826 168.281 288.671 165.305 288.671 160.149 293.826 163.126 293.826 168.281" fill="#2373a9"/>
          <polygon points="288.671 160.149 287.69 159.583 287.69 165.72 293.826 169.262 293.826 168.281 288.671 165.305 288.671 160.149" fill="#04496d"/>
          <polygon points="285.063 172.14 279.907 169.164 279.907 164.008 285.063 166.985 285.063 172.14" fill="#2373a9"/>
          <polygon points="279.907 164.008 278.926 163.442 278.926 169.578 285.063 173.121 285.063 172.14 279.907 169.164 279.907 164.008" fill="#04496d"/>
          <polygon points="276.3 167.081 271.144 164.104 271.144 158.949 276.3 161.925 276.3 167.081" fill="#2373a9"/>
          <polygon points="271.144 158.949 270.163 158.382 270.163 164.519 276.3 168.062 276.3 167.081 271.144 164.104 271.144 158.949" fill="#04496d"/>
          <polygon points="293.826 177.2 288.671 174.223 288.671 169.068 293.826 172.044 293.826 177.2" fill="#2373a9"/>
          <polygon points="288.671 169.068 287.69 168.501 287.69 174.638 293.826 178.181 293.826 177.2 288.671 174.223 288.671 169.068" fill="#04496d"/>
          <polygon points="285.063 181.058 279.907 178.082 279.907 172.926 285.063 175.903 285.063 181.058" fill="#2373a9"/>
          <polygon points="279.907 172.926 278.926 172.36 278.926 178.496 285.063 182.039 285.063 181.058 279.907 178.082 279.907 172.926" fill="#04496d"/>
          <polygon points="276.3 175.999 271.144 173.022 271.144 167.867 276.3 170.843 276.3 175.999" fill="#2373a9"/>
          <polygon points="271.144 167.867 270.163 167.301 270.163 173.437 276.3 176.98 276.3 175.999 271.144 173.022 271.144 167.867" fill="#04496d"/>
          <polygon points="293.826 186.118 288.671 183.141 288.671 177.986 293.826 180.962 293.826 186.118" fill="#2373a9"/>
          <polygon points="288.671 177.986 287.69 177.419 287.69 183.556 293.826 187.099 293.826 186.118 288.671 183.141 288.671 177.986" fill="#04496d"/>
        </g>
        <g>
          <polygon points="390.554 189.745 385.399 186.768 385.399 181.613 390.554 184.589 390.554 189.745" fill="#2373a9"/>
          <polygon points="385.399 181.613 384.418 181.046 384.418 187.183 390.554 190.726 390.554 189.745 385.399 186.768 385.399 181.613" fill="#04496d"/>
          <polygon points="381.791 184.685 376.636 181.709 376.636 176.553 381.791 179.53 381.791 184.685" fill="#2373a9"/>
          <polygon points="376.636 176.553 375.655 175.987 375.655 182.123 381.791 185.666 381.791 184.685 376.636 181.709 376.636 176.553" fill="#04496d"/>
          <polygon points="399.318 194.804 394.162 191.828 394.162 186.672 399.318 189.649 399.318 194.804" fill="#2373a9"/>
          <polygon points="394.162 186.672 393.181 186.106 393.181 192.242 399.318 195.785 399.318 194.804 394.162 191.828 394.162 186.672" fill="#04496d"/>
          <polygon points="390.554 198.331 385.399 195.354 385.399 190.199 390.554 193.175 390.554 198.331" fill="#2373a9"/>
          <polygon points="385.399 190.199 384.418 189.632 384.418 195.769 390.554 199.312 390.554 198.331 385.399 195.354 385.399 190.199" fill="#04496d"/>
          <polygon points="381.791 193.271 376.636 190.295 376.636 185.139 381.791 188.116 381.791 193.271" fill="#2373a9"/>
          <polygon points="376.636 185.139 375.655 184.573 375.655 190.709 381.791 194.252 381.791 193.271 376.636 190.295 376.636 185.139" fill="#04496d"/>
          <polygon points="399.318 203.39 394.162 200.414 394.162 195.258 399.318 198.235 399.318 203.39" fill="#2373a9"/>
          <polygon points="394.162 195.258 393.181 194.692 393.181 200.828 399.318 204.371 399.318 203.39 394.162 200.414 394.162 195.258" fill="#04496d"/>
          <polygon points="390.554 206.917 385.399 203.94 385.399 198.785 390.554 201.761 390.554 206.917" fill="#2373a9"/>
          <polygon points="385.399 198.785 384.418 198.218 384.418 204.355 390.554 207.898 390.554 206.917 385.399 203.94 385.399 198.785" fill="#04496d"/>
          <polygon points="381.791 201.857 376.636 198.881 376.636 193.725 381.791 196.702 381.791 201.857" fill="#2373a9"/>
          <polygon points="376.636 193.725 375.655 193.159 375.655 199.295 381.791 202.838 381.791 201.857 376.636 198.881 376.636 193.725" fill="#04496d"/>
          <polygon points="399.318 211.976 394.162 209 394.162 203.844 399.318 206.821 399.318 211.976" fill="#2373a9"/>
          <polygon points="394.162 203.844 393.181 203.278 393.181 209.414 399.318 212.957 399.318 211.976 394.162 209 394.162 203.844" fill="#04496d"/>
          <polygon points="390.554 215.503 385.399 212.526 385.399 207.37 390.554 210.347 390.554 215.503" fill="#2373a9"/>
          <polygon points="385.399 207.37 384.418 206.804 384.418 212.941 390.554 216.484 390.554 215.503 385.399 212.526 385.399 207.37" fill="#04496d"/>
          <polygon points="381.791 210.443 376.636 207.467 376.636 202.311 381.791 205.288 381.791 210.443" fill="#2373a9"/>
          <polygon points="376.636 202.311 375.655 201.745 375.655 207.881 381.791 211.424 381.791 210.443 376.636 207.467 376.636 202.311" fill="#04496d"/>
          <polygon points="399.318 220.562 394.162 217.586 394.162 212.43 399.318 215.407 399.318 220.562" fill="#2373a9"/>
          <polygon points="394.162 212.43 393.181 211.864 393.181 218 399.318 221.543 399.318 220.562 394.162 217.585 394.162 212.43" fill="#04496d"/>
          <polygon points="390.346 224.068 385.19 221.092 385.19 215.936 390.346 218.913 390.346 224.068" fill="#2373a9"/>
          <polygon points="385.19 215.936 384.209 215.37 384.209 221.506 390.346 225.049 390.346 224.068 385.19 221.092 385.19 215.936" fill="#04496d"/>
          <polygon points="381.583 219.009 376.427 216.032 376.427 210.877 381.583 213.853 381.583 219.009" fill="#2373a9"/>
          <polygon points="376.427 210.877 375.446 210.31 375.446 216.447 381.583 219.99 381.583 219.009 376.427 216.032 376.427 210.877" fill="#04496d"/>
          <polygon points="399.109 229.128 393.954 226.151 393.954 220.996 399.109 223.972 399.109 229.128" fill="#2373a9"/>
          <polygon points="393.954 220.996 392.973 220.429 392.973 226.566 399.109 230.109 399.109 229.128 393.954 226.151 393.954 220.996" fill="#04496d"/>
          <polygon points="390.346 232.986 385.19 230.01 385.19 224.854 390.346 227.831 390.346 232.986" fill="#2373a9"/>
          <polygon points="385.19 224.854 384.209 224.288 384.209 230.425 390.346 233.967 390.346 232.986 385.19 230.01 385.19 224.854" fill="#04496d"/>
          <polygon points="381.583 227.927 376.427 224.95 376.427 219.795 381.583 222.771 381.583 227.927" fill="#2373a9"/>
          <polygon points="376.427 219.795 375.446 219.229 375.446 225.365 381.583 228.908 381.583 227.927 376.427 224.95 376.427 219.795" fill="#04496d"/>
          <polygon points="399.109 238.046 393.954 235.069 393.954 229.914 399.109 232.89 399.109 238.046" fill="#2373a9"/>
          <polygon points="393.954 229.914 392.973 229.347 392.973 235.484 399.109 239.027 399.109 238.046 393.954 235.069 393.954 229.914" fill="#04496d"/>
          <polygon points="390.346 241.905 385.19 238.928 385.19 233.773 390.346 236.749 390.346 241.905" fill="#2373a9"/>
          <polygon points="385.19 233.773 384.209 233.206 384.209 239.343 390.346 242.886 390.346 241.905 385.19 238.928 385.19 233.773" fill="#04496d"/>
          <polygon points="381.583 236.845 376.427 233.869 376.427 228.713 381.583 231.69 381.583 236.845" fill="#2373a9"/>
          <polygon points="376.427 228.713 375.446 228.147 375.446 234.283 381.583 237.826 381.583 236.845 376.427 233.869 376.427 228.713" fill="#04496d"/>
          <polygon points="399.109 246.964 393.954 243.988 393.954 238.832 399.109 241.809 399.109 246.964" fill="#2373a9"/>
          <polygon points="393.954 238.832 392.973 238.266 392.973 244.402 399.109 247.945 399.109 246.964 393.954 243.988 393.954 238.832" fill="#04496d"/>
        </g>
      </g>
    </g>
    <path d="M536.436,429.261v19.745a76.581,76.581,0,0,1-38.005,66.156l-77.808,45.373a32.744,32.744,0,0,1-32.42.324L237.566,477.017a72.037,72.037,0,0,0-70.805.414L61.233,537.8" fill="none" stroke="#008dce" stroke-miterlimit="10" stroke-width="2"/>
    <g>
      <g>
        <path d="M752.526,371.658h0l0-70.9H442.016l0,70.9h0v.108h.006a10.226,10.226,0,0,0,5.158,8.837L585.7,460.586a23.134,23.134,0,0,0,23.138,0L747.362,380.6a10.223,10.223,0,0,0,5.157-8.837h.007Z" fill="url(#g)"/>
        <path d="M606.221,461.881l141.141-81.019a10.224,10.224,0,0,0,5.157-8.837h.007v-.108h0l0-70.9-146.3,85.416" fill="#005592"/>
        <path d="M447.177,291.708,585,212.13a24.542,24.542,0,0,1,24.542,0l137.822,79.578a10.329,10.329,0,0,1,0,17.89L608.838,389.582a23.139,23.139,0,0,1-23.138,0L447.177,309.6A10.329,10.329,0,0,1,447.177,291.708Z" fill="url(#h)"/>
        <path d="M640.817,419.185l81.991-47.338c5.87-3.389,10.628-10.895,10.628-16.764V349.7c0-5.87-4.758-7.881-10.628-4.492l-81.991,47.337c-5.87,3.389-10.628,10.895-10.628,16.765v5.38C630.189,420.562,634.947,422.574,640.817,419.185Z" fill="#34c3e2"/>
        <g>
          <polygon points="465.008 331.042 459.853 328.066 459.853 322.91 465.008 325.887 465.008 331.042" fill="#2373a9"/>
          <polygon points="459.853 322.91 458.872 322.344 458.872 328.48 465.008 332.023 465.008 331.042 459.853 328.066 459.853 322.91" fill="#04496d"/>
          <polygon points="456.245 325.983 451.089 323.006 451.089 317.851 456.245 320.827 456.245 325.983" fill="#2373a9"/>
          <polygon points="451.089 317.851 450.108 317.284 450.108 323.421 456.245 326.964 456.245 325.983 451.089 323.006 451.089 317.851" fill="#04496d"/>
          <polygon points="473.771 336.102 468.616 333.125 468.616 327.97 473.771 330.946 473.771 336.102" fill="#2373a9"/>
          <polygon points="468.616 327.97 467.635 327.403 467.635 333.54 473.771 337.083 473.771 336.102 468.616 333.125 468.616 327.97" fill="#04496d"/>
          <polygon points="465.008 339.628 459.853 336.652 459.853 331.496 465.008 334.473 465.008 339.628" fill="#2373a9"/>
          <polygon points="459.853 331.496 458.872 330.93 458.872 337.066 465.008 340.609 465.008 339.628 459.853 336.652 459.853 331.496" fill="#04496d"/>
          <polygon points="456.245 334.569 451.089 331.592 451.089 326.437 456.245 329.413 456.245 334.569" fill="#2373a9"/>
          <polygon points="451.089 326.437 450.108 325.87 450.108 332.007 456.245 335.55 456.245 334.569 451.089 331.592 451.089 326.437" fill="#04496d"/>
          <polygon points="473.771 344.688 468.616 341.711 468.616 336.556 473.771 339.532 473.771 344.688" fill="#2373a9"/>
          <polygon points="468.616 336.556 467.635 335.989 467.635 342.126 473.771 345.669 473.771 344.688 468.616 341.711 468.616 336.556" fill="#04496d"/>
          <polygon points="465.008 348.214 459.853 345.238 459.853 340.082 465.008 343.059 465.008 348.214" fill="#2373a9"/>
          <polygon points="459.853 340.082 458.872 339.516 458.872 345.652 465.008 349.195 465.008 348.214 459.853 345.238 459.853 340.082" fill="#04496d"/>
          <polygon points="456.245 343.155 451.089 340.178 451.089 335.023 456.245 337.999 456.245 343.155" fill="#2373a9"/>
          <polygon points="451.089 335.023 450.108 334.456 450.108 340.593 456.245 344.136 456.245 343.155 451.089 340.178 451.089 335.023" fill="#04496d"/>
          <polygon points="473.771 353.274 468.616 350.297 468.616 345.142 473.771 348.118 473.771 353.274" fill="#2373a9"/>
          <polygon points="468.616 345.142 467.635 344.575 467.635 350.712 473.771 354.255 473.771 353.274 468.616 350.297 468.616 345.142" fill="#04496d"/>
          <polygon points="465.008 356.8 459.853 353.823 459.853 348.668 465.008 351.645 465.008 356.8" fill="#2373a9"/>
          <polygon points="459.853 348.668 458.872 348.102 458.872 354.238 465.008 357.781 465.008 356.8 459.853 353.823 459.853 348.668" fill="#04496d"/>
          <polygon points="456.245 351.741 451.089 348.764 451.089 343.608 456.245 346.585 456.245 351.741" fill="#2373a9"/>
          <polygon points="451.089 343.608 450.108 343.042 450.108 349.179 456.245 352.722 456.245 351.741 451.089 348.764 451.089 343.608" fill="#04496d"/>
          <polygon points="473.771 361.86 468.616 358.883 468.616 353.727 473.771 356.704 473.771 361.86" fill="#2373a9"/>
          <polygon points="468.616 353.727 467.635 353.161 467.635 359.298 473.771 362.841 473.771 361.86 468.616 358.883 468.616 353.727" fill="#04496d"/>
          <polygon points="464.8 365.366 459.644 362.389 459.644 357.234 464.8 360.21 464.8 365.366" fill="#2373a9"/>
          <polygon points="459.644 357.234 458.663 356.667 458.663 362.804 464.8 366.347 464.8 365.366 459.644 362.389 459.644 357.234" fill="#04496d"/>
          <polygon points="456.036 360.306 450.881 357.33 450.881 352.174 456.036 355.151 456.036 360.306" fill="#2373a9"/>
          <polygon points="450.881 352.174 449.9 351.608 449.9 357.744 456.036 361.287 456.036 360.306 450.881 357.33 450.881 352.174" fill="#04496d"/>
          <polygon points="473.563 370.425 468.408 367.449 468.408 362.293 473.563 365.27 473.563 370.425" fill="#2373a9"/>
          <polygon points="468.407 362.293 467.427 361.727 467.427 367.863 473.563 371.406 473.563 370.425 468.407 367.449 468.407 362.293" fill="#04496d"/>
          <polygon points="464.8 374.284 459.644 371.307 459.644 366.152 464.8 369.128 464.8 374.284" fill="#2373a9"/>
          <polygon points="459.644 366.152 458.663 365.585 458.663 371.722 464.8 375.265 464.8 374.284 459.644 371.307 459.644 366.152" fill="#04496d"/>
          <polygon points="456.036 369.224 450.881 366.248 450.881 361.092 456.036 364.069 456.036 369.224" fill="#2373a9"/>
          <polygon points="450.881 361.092 449.9 360.526 449.9 366.662 456.036 370.205 456.036 369.224 450.881 366.248 450.881 361.092" fill="#04496d"/>
          <polygon points="473.563 379.343 468.408 376.367 468.408 371.211 473.563 374.188 473.563 379.343" fill="#2373a9"/>
          <polygon points="468.407 371.211 467.427 370.645 467.427 376.781 473.563 380.324 473.563 379.343 468.407 376.367 468.407 371.211" fill="#04496d"/>
          <polygon points="464.8 383.202 459.644 380.226 459.644 375.07 464.8 378.047 464.8 383.202" fill="#2373a9"/>
          <polygon points="459.644 375.07 458.663 374.504 458.663 380.64 464.8 384.183 464.8 383.202 459.644 380.226 459.644 375.07" fill="#04496d"/>
          <polygon points="456.036 378.143 450.881 375.166 450.881 370.011 456.036 372.987 456.036 378.143" fill="#2373a9"/>
          <polygon points="450.881 370.011 449.9 369.444 449.9 375.581 456.036 379.124 456.036 378.143 450.881 375.166 450.881 370.011" fill="#04496d"/>
          <polygon points="473.563 388.262 468.408 385.285 468.408 380.13 473.563 383.106 473.563 388.262" fill="#2373a9"/>
          <polygon points="468.407 380.13 467.427 379.563 467.427 385.7 473.563 389.243 473.563 388.262 468.407 385.285 468.407 380.13" fill="#04496d"/>
        </g>
        <g>
          <polygon points="570.291 391.889 565.136 388.912 565.136 383.756 570.291 386.733 570.291 391.889" fill="#2373a9"/>
          <polygon points="565.136 383.756 564.155 383.19 564.155 389.327 570.291 392.87 570.291 391.889 565.136 388.912 565.136 383.756" fill="#04496d"/>
          <polygon points="561.528 386.829 556.372 383.853 556.372 378.697 561.528 381.674 561.528 386.829" fill="#2373a9"/>
          <polygon points="556.372 378.697 555.391 378.131 555.391 384.267 561.528 387.81 561.528 386.829 556.372 383.853 556.372 378.697" fill="#04496d"/>
          <polygon points="579.054 396.948 573.899 393.972 573.899 388.816 579.054 391.793 579.054 396.948" fill="#2373a9"/>
          <polygon points="573.899 388.816 572.918 388.25 572.918 394.386 579.054 397.929 579.054 396.948 573.899 393.971 573.899 388.816" fill="#04496d"/>
          <polygon points="570.291 400.474 565.136 397.498 565.136 392.342 570.291 395.319 570.291 400.474" fill="#2373a9"/>
          <polygon points="565.136 392.342 564.155 391.776 564.155 397.913 570.291 401.455 570.291 400.474 565.136 397.498 565.136 392.342" fill="#04496d"/>
          <polygon points="561.528 395.415 556.372 392.438 556.372 387.283 561.528 390.259 561.528 395.415" fill="#2373a9"/>
          <polygon points="556.372 387.283 555.391 386.717 555.391 392.853 561.528 396.396 561.528 395.415 556.372 392.438 556.372 387.283" fill="#04496d"/>
          <polygon points="579.054 405.534 573.899 402.557 573.899 397.402 579.054 400.378 579.054 405.534" fill="#2373a9"/>
          <polygon points="573.899 397.402 572.918 396.835 572.918 402.972 579.054 406.515 579.054 405.534 573.899 402.557 573.899 397.402" fill="#04496d"/>
          <polygon points="570.291 409.06 565.136 406.084 565.136 400.928 570.291 403.905 570.291 409.06" fill="#2373a9"/>
          <polygon points="565.136 400.928 564.155 400.362 564.155 406.498 570.291 410.041 570.291 409.06 565.136 406.084 565.136 400.928" fill="#04496d"/>
          <polygon points="561.528 404.001 556.372 401.024 556.372 395.869 561.528 398.845 561.528 404.001" fill="#2373a9"/>
          <polygon points="556.372 395.869 555.391 395.302 555.391 401.439 561.528 404.982 561.528 404.001 556.372 401.024 556.372 395.869" fill="#04496d"/>
          <polygon points="579.054 414.12 573.899 411.143 573.899 405.988 579.054 408.964 579.054 414.12" fill="#2373a9"/>
          <polygon points="573.899 405.988 572.918 405.421 572.918 411.558 579.054 415.101 579.054 414.12 573.899 411.143 573.899 405.988" fill="#04496d"/>
          <polygon points="570.291 417.646 565.136 414.67 565.136 409.514 570.291 412.491 570.291 417.646" fill="#2373a9"/>
          <polygon points="565.136 409.514 564.155 408.948 564.155 415.084 570.291 418.627 570.291 417.646 565.136 414.67 565.136 409.514" fill="#04496d"/>
          <polygon points="561.528 412.587 556.372 409.61 556.372 404.455 561.528 407.431 561.528 412.587" fill="#2373a9"/>
          <polygon points="556.372 404.455 555.391 403.888 555.391 410.025 561.528 413.568 561.528 412.587 556.372 409.61 556.372 404.455" fill="#04496d"/>
          <polygon points="579.054 422.706 573.899 419.729 573.899 414.574 579.054 417.55 579.054 422.706" fill="#2373a9"/>
          <polygon points="573.899 414.574 572.918 414.007 572.918 420.144 579.054 423.687 579.054 422.706 573.899 419.729 573.899 414.574" fill="#04496d"/>
          <polygon points="570.083 426.212 564.927 423.235 564.927 418.08 570.083 421.056 570.083 426.212" fill="#2373a9"/>
          <polygon points="564.927 418.08 563.946 417.513 563.946 423.65 570.083 427.193 570.083 426.212 564.927 423.235 564.927 418.08" fill="#04496d"/>
          <polygon points="561.32 421.152 556.164 418.176 556.164 413.02 561.32 415.997 561.32 421.152" fill="#2373a9"/>
          <polygon points="556.164 413.02 555.183 412.454 555.183 418.591 561.32 422.133 561.32 421.152 556.164 418.176 556.164 413.02" fill="#04496d"/>
          <polygon points="578.846 431.271 573.691 428.295 573.691 423.139 578.846 426.116 578.846 431.271" fill="#2373a9"/>
          <polygon points="573.691 423.139 572.71 422.573 572.71 428.709 578.846 432.252 578.846 431.271 573.691 428.295 573.691 423.139" fill="#04496d"/>
          <polygon points="570.083 435.13 564.927 432.154 564.927 426.998 570.083 429.975 570.083 435.13" fill="#2373a9"/>
          <polygon points="564.927 426.998 563.946 426.432 563.946 432.568 570.083 436.111 570.083 435.13 564.927 432.154 564.927 426.998" fill="#04496d"/>
          <polygon points="561.32 430.071 556.164 427.094 556.164 421.939 561.32 424.915 561.32 430.071" fill="#2373a9"/>
          <polygon points="556.164 421.939 555.183 421.372 555.183 427.509 561.32 431.052 561.32 430.071 556.164 427.094 556.164 421.939" fill="#04496d"/>
          <polygon points="578.846 440.19 573.691 437.213 573.691 432.058 578.846 435.034 578.846 440.19" fill="#2373a9"/>
          <polygon points="573.691 432.058 572.71 431.491 572.71 437.628 578.846 441.171 578.846 440.19 573.691 437.213 573.691 432.058" fill="#04496d"/>
          <polygon points="570.083 444.048 564.927 441.072 564.927 435.916 570.083 438.893 570.083 444.048" fill="#2373a9"/>
          <polygon points="564.927 435.916 563.946 435.35 563.946 441.486 570.083 445.029 570.083 444.048 564.927 441.072 564.927 435.916" fill="#04496d"/>
          <polygon points="561.32 438.989 556.164 436.012 556.164 430.857 561.32 433.833 561.32 438.989" fill="#2373a9"/>
          <polygon points="556.164 430.857 555.183 430.29 555.183 436.427 561.32 439.97 561.32 438.989 556.164 436.012 556.164 430.857" fill="#04496d"/>
          <polygon points="578.846 449.108 573.691 446.131 573.691 440.976 578.846 443.952 578.846 449.108" fill="#2373a9"/>
          <polygon points="573.691 440.976 572.71 440.409 572.71 446.546 578.846 450.089 578.846 449.108 573.691 446.131 573.691 440.976" fill="#04496d"/>
        </g>
      </g>
      <g>
        <path d="M754.3,274.525h0l0-70.9H443.792l0,70.9h0v.109h.007a10.221,10.221,0,0,0,5.157,8.836l138.523,79.983a23.136,23.136,0,0,0,23.139,0L749.138,283.47a10.221,10.221,0,0,0,5.157-8.836h.007Z" fill="url(#i)"/>
        <path d="M608,364.749l141.141-81.02a10.221,10.221,0,0,0,5.157-8.836h.007v-.109h0l0-70.9L608,289.3" fill="#005592"/>
        <path d="M448.953,194.576,586.774,115a24.539,24.539,0,0,1,24.543,0l137.821,79.578a10.329,10.329,0,0,1,0,17.89L610.615,292.449a23.141,23.141,0,0,1-23.139,0L448.953,212.466A10.329,10.329,0,0,1,448.953,194.576Z" fill="url(#j)"/>
        <path d="M642.594,322.052l81.99-47.337c5.87-3.389,10.628-10.895,10.628-16.765v-5.381c0-5.87-4.758-7.881-10.628-4.492l-81.99,47.338c-5.87,3.389-10.629,10.894-10.629,16.764v5.381C631.965,323.43,636.724,325.441,642.594,322.052Z" fill="#34c3e2"/>
        <g>
          <polygon points="466.784 233.91 461.629 230.933 461.629 225.778 466.784 228.754 466.784 233.91" fill="#2373a9"/>
          <polygon points="461.629 225.777 460.648 225.211 460.648 231.348 466.784 234.891 466.784 233.91 461.629 230.933 461.629 225.777" fill="#04496d"/>
          <polygon points="458.021 228.85 452.866 225.874 452.866 220.718 458.021 223.695 458.021 228.85" fill="#2373a9"/>
          <polygon points="452.865 220.718 451.885 220.152 451.885 226.288 458.021 229.831 458.021 228.85 452.865 225.874 452.865 220.718" fill="#04496d"/>
          <polygon points="475.548 238.969 470.392 235.993 470.392 230.837 475.548 233.814 475.548 238.969" fill="#2373a9"/>
          <polygon points="470.392 230.837 469.411 230.271 469.411 236.407 475.548 239.95 475.548 238.969 470.392 235.993 470.392 230.837" fill="#04496d"/>
          <polygon points="466.784 242.495 461.629 239.519 461.629 234.363 466.784 237.34 466.784 242.495" fill="#2373a9"/>
          <polygon points="461.629 234.363 460.648 233.797 460.648 239.934 466.784 243.476 466.784 242.495 461.629 239.519 461.629 234.363" fill="#04496d"/>
          <polygon points="458.021 237.436 452.866 234.459 452.866 229.304 458.021 232.28 458.021 237.436" fill="#2373a9"/>
          <polygon points="452.865 229.304 451.885 228.738 451.885 234.874 458.021 238.417 458.021 237.436 452.865 234.459 452.865 229.304" fill="#04496d"/>
          <polygon points="475.548 247.555 470.392 244.578 470.392 239.423 475.548 242.399 475.548 247.555" fill="#2373a9"/>
          <polygon points="470.392 239.423 469.411 238.857 469.411 244.993 475.548 248.536 475.548 247.555 470.392 244.578 470.392 239.423" fill="#04496d"/>
          <polygon points="466.784 251.081 461.629 248.105 461.629 242.949 466.784 245.926 466.784 251.081" fill="#2373a9"/>
          <polygon points="461.629 242.949 460.648 242.383 460.648 248.519 466.784 252.062 466.784 251.081 461.629 248.105 461.629 242.949" fill="#04496d"/>
          <polygon points="458.021 246.022 452.866 243.045 452.866 237.89 458.021 240.866 458.021 246.022" fill="#2373a9"/>
          <polygon points="452.865 237.89 451.885 237.323 451.885 243.46 458.021 247.003 458.021 246.022 452.865 243.045 452.865 237.89" fill="#04496d"/>
          <polygon points="475.548 256.141 470.392 253.164 470.392 248.009 475.548 250.985 475.548 256.141" fill="#2373a9"/>
          <polygon points="470.392 248.009 469.411 247.442 469.411 253.579 475.548 257.122 475.548 256.141 470.392 253.164 470.392 248.009" fill="#04496d"/>
          <polygon points="466.784 259.667 461.629 256.691 461.629 251.535 466.784 254.512 466.784 259.667" fill="#2373a9"/>
          <polygon points="461.629 251.535 460.648 250.969 460.648 257.105 466.784 260.648 466.784 259.667 461.629 256.691 461.629 251.535" fill="#04496d"/>
          <polygon points="458.021 254.608 452.866 251.631 452.866 246.476 458.021 249.452 458.021 254.608" fill="#2373a9"/>
          <polygon points="452.865 246.476 451.885 245.909 451.885 252.046 458.021 255.589 458.021 254.608 452.865 251.631 452.865 246.476" fill="#04496d"/>
          <polygon points="475.548 264.727 470.392 261.75 470.392 256.595 475.548 259.571 475.548 264.727" fill="#2373a9"/>
          <polygon points="470.392 256.595 469.411 256.028 469.411 262.165 475.548 265.708 475.548 264.727 470.392 261.75 470.392 256.595" fill="#04496d"/>
          <polygon points="466.576 268.233 461.42 265.256 461.42 260.101 466.576 263.077 466.576 268.233" fill="#2373a9"/>
          <polygon points="461.42 260.101 460.439 259.535 460.439 265.671 466.576 269.214 466.576 268.233 461.42 265.256 461.42 260.101" fill="#04496d"/>
          <polygon points="457.813 263.173 452.657 260.197 452.657 255.041 457.813 258.018 457.813 263.173" fill="#2373a9"/>
          <polygon points="452.657 255.041 451.676 254.475 451.676 260.612 457.813 264.154 457.813 263.173 452.657 260.197 452.657 255.041" fill="#04496d"/>
          <polygon points="475.339 273.292 470.184 270.316 470.184 265.16 475.339 268.137 475.339 273.292" fill="#2373a9"/>
          <polygon points="470.184 265.16 469.203 264.594 469.203 270.731 475.339 274.273 475.339 273.292 470.184 270.316 470.184 265.16" fill="#04496d"/>
          <polygon points="466.576 277.151 461.42 274.175 461.42 269.019 466.576 271.996 466.576 277.151" fill="#2373a9"/>
          <polygon points="461.42 269.019 460.439 268.453 460.439 274.589 466.576 278.132 466.576 277.151 461.42 274.175 461.42 269.019" fill="#04496d"/>
          <polygon points="457.813 272.092 452.657 269.115 452.657 263.96 457.813 266.936 457.813 272.092" fill="#2373a9"/>
          <polygon points="452.657 263.96 451.676 263.393 451.676 269.53 457.813 273.073 457.813 272.092 452.657 269.115 452.657 263.96" fill="#04496d"/>
          <polygon points="475.339 282.211 470.184 279.234 470.184 274.079 475.339 277.055 475.339 282.211" fill="#2373a9"/>
          <polygon points="470.184 274.079 469.203 273.512 469.203 279.649 475.339 283.192 475.339 282.211 470.184 279.234 470.184 274.079" fill="#04496d"/>
          <polygon points="466.576 286.069 461.42 283.093 461.42 277.937 466.576 280.914 466.576 286.069" fill="#2373a9"/>
          <polygon points="461.42 277.937 460.439 277.371 460.439 283.507 466.576 287.05 466.576 286.069 461.42 283.093 461.42 277.937" fill="#04496d"/>
          <polygon points="457.813 281.01 452.657 278.033 452.657 272.878 457.813 275.854 457.813 281.01" fill="#2373a9"/>
          <polygon points="452.657 272.878 451.676 272.311 451.676 278.448 457.813 281.991 457.813 281.01 452.657 278.033 452.657 272.878" fill="#04496d"/>
          <polygon points="475.339 291.129 470.184 288.152 470.184 282.997 475.339 285.973 475.339 291.129" fill="#2373a9"/>
          <polygon points="470.184 282.997 469.203 282.43 469.203 288.567 475.339 292.11 475.339 291.129 470.184 288.152 470.184 282.997" fill="#04496d"/>
        </g>
        <g>
          <polygon points="572.067 294.756 566.912 291.779 566.912 286.624 572.067 289.6 572.067 294.756" fill="#2373a9"/>
          <polygon points="566.912 286.624 565.931 286.057 565.931 292.194 572.067 295.737 572.067 294.756 566.912 291.779 566.912 286.624" fill="#04496d"/>
          <polygon points="563.304 289.696 558.149 286.72 558.149 281.564 563.304 284.541 563.304 289.696" fill="#2373a9"/>
          <polygon points="558.149 281.564 557.168 280.998 557.168 287.134 563.304 290.677 563.304 289.696 558.149 286.72 558.149 281.564" fill="#04496d"/>
          <polygon points="580.831 299.815 575.675 296.839 575.675 291.683 580.831 294.66 580.831 299.815" fill="#2373a9"/>
          <polygon points="575.675 291.683 574.694 291.117 574.694 297.253 580.831 300.796 580.831 299.815 575.675 296.839 575.675 291.683" fill="#04496d"/>
          <polygon points="572.067 303.342 566.912 300.365 566.912 295.21 572.067 298.186 572.067 303.342" fill="#2373a9"/>
          <polygon points="566.912 295.21 565.931 294.643 565.931 300.78 572.067 304.323 572.067 303.342 566.912 300.365 566.912 295.21" fill="#04496d"/>
          <polygon points="563.304 298.282 558.149 295.306 558.149 290.15 563.304 293.127 563.304 298.282" fill="#2373a9"/>
          <polygon points="558.149 290.15 557.168 289.584 557.168 295.72 563.304 299.263 563.304 298.282 558.149 295.306 558.149 290.15" fill="#04496d"/>
          <polygon points="580.831 308.401 575.675 305.425 575.675 300.269 580.831 303.246 580.831 308.401" fill="#2373a9"/>
          <polygon points="575.675 300.269 574.694 299.703 574.694 305.839 580.831 309.382 580.831 308.401 575.675 305.425 575.675 300.269" fill="#04496d"/>
          <polygon points="572.067 311.928 566.912 308.951 566.912 303.796 572.067 306.772 572.067 311.928" fill="#2373a9"/>
          <polygon points="566.912 303.796 565.931 303.229 565.931 309.366 572.067 312.909 572.067 311.928 566.912 308.951 566.912 303.796" fill="#04496d"/>
          <polygon points="563.304 306.868 558.149 303.892 558.149 298.736 563.304 301.713 563.304 306.868" fill="#2373a9"/>
          <polygon points="558.149 298.736 557.168 298.17 557.168 304.306 563.304 307.849 563.304 306.868 558.149 303.892 558.149 298.736" fill="#04496d"/>
          <polygon points="580.831 316.987 575.675 314.011 575.675 308.855 580.831 311.832 580.831 316.987" fill="#2373a9"/>
          <polygon points="575.675 308.855 574.694 308.289 574.694 314.425 580.831 317.968 580.831 316.987 575.675 314.011 575.675 308.855" fill="#04496d"/>
          <polygon points="572.067 320.514 566.912 317.537 566.912 312.381 572.067 315.358 572.067 320.514" fill="#2373a9"/>
          <polygon points="566.912 312.381 565.931 311.815 565.931 317.952 572.067 321.495 572.067 320.514 566.912 317.537 566.912 312.381" fill="#04496d"/>
          <polygon points="563.304 315.454 558.149 312.478 558.149 307.322 563.304 310.299 563.304 315.454" fill="#2373a9"/>
          <polygon points="558.149 307.322 557.168 306.756 557.168 312.892 563.304 316.435 563.304 315.454 558.149 312.477 558.149 307.322" fill="#04496d"/>
          <polygon points="580.831 325.573 575.675 322.596 575.675 317.441 580.831 320.418 580.831 325.573" fill="#2373a9"/>
          <polygon points="575.675 317.441 574.694 316.875 574.694 323.011 580.831 326.554 580.831 325.573 575.675 322.596 575.675 317.441" fill="#04496d"/>
          <polygon points="571.859 329.079 566.704 326.103 566.704 320.947 571.859 323.924 571.859 329.079" fill="#2373a9"/>
          <polygon points="566.704 320.947 565.723 320.381 565.723 326.517 571.859 330.06 571.859 329.079 566.704 326.103 566.704 320.947" fill="#04496d"/>
          <polygon points="563.096 324.02 557.94 321.043 557.94 315.888 563.096 318.864 563.096 324.02" fill="#2373a9"/>
          <polygon points="557.94 315.888 556.959 315.321 556.959 321.458 563.096 325.001 563.096 324.02 557.94 321.043 557.94 315.888" fill="#04496d"/>
          <polygon points="580.622 334.139 575.467 331.162 575.467 326.007 580.622 328.983 580.622 334.139" fill="#2373a9"/>
          <polygon points="575.467 326.007 574.486 325.44 574.486 331.577 580.622 335.12 580.622 334.139 575.467 331.162 575.467 326.007" fill="#04496d"/>
          <polygon points="571.859 337.997 566.704 335.021 566.704 329.865 571.859 332.842 571.859 337.997" fill="#2373a9"/>
          <polygon points="566.704 329.865 565.723 329.299 565.723 335.435 571.859 338.978 571.859 337.997 566.704 335.021 566.704 329.865" fill="#04496d"/>
          <polygon points="563.096 332.938 557.94 329.961 557.94 324.806 563.096 327.782 563.096 332.938" fill="#2373a9"/>
          <polygon points="557.94 324.806 556.959 324.239 556.959 330.376 563.096 333.919 563.096 332.938 557.94 329.961 557.94 324.806" fill="#04496d"/>
          <polygon points="580.622 343.057 575.467 340.08 575.467 334.925 580.622 337.901 580.622 343.057" fill="#2373a9"/>
          <polygon points="575.467 334.925 574.486 334.358 574.486 340.495 580.622 344.038 580.622 343.057 575.467 340.08 575.467 334.925" fill="#04496d"/>
          <polygon points="571.859 346.916 566.704 343.939 566.704 338.784 571.859 341.76 571.859 346.916" fill="#2373a9"/>
          <polygon points="566.704 338.784 565.723 338.217 565.723 344.354 571.859 347.897 571.859 346.916 566.704 343.939 566.704 338.784" fill="#04496d"/>
          <polygon points="563.096 341.856 557.94 338.88 557.94 333.724 563.096 336.701 563.096 341.856" fill="#2373a9"/>
          <polygon points="557.94 333.724 556.959 333.158 556.959 339.294 563.096 342.837 563.096 341.856 557.94 338.88 557.94 333.724" fill="#04496d"/>
          <polygon points="580.622 351.975 575.467 348.999 575.467 343.843 580.622 346.82 580.622 351.975" fill="#2373a9"/>
          <polygon points="575.467 343.843 574.486 343.277 574.486 349.413 580.622 352.956 580.622 351.975 575.467 348.999 575.467 343.843" fill="#04496d"/>
        </g>
      </g>
      <g>
        <path d="M754.3,174.805h0l0-70.9H443.792l0,70.9h0v.109h.007a10.221,10.221,0,0,0,5.157,8.836l138.523,79.983a23.136,23.136,0,0,0,23.139,0L749.138,183.75a10.221,10.221,0,0,0,5.157-8.836h.007Z" fill="url(#k)"/>
        <path d="M608,265.029l141.141-81.02a10.221,10.221,0,0,0,5.157-8.836h.007v-.109h0l0-70.9L608,189.584" fill="#005592"/>
        <path d="M448.953,94.856,586.774,15.278a24.539,24.539,0,0,1,24.543,0L749.138,94.856a10.329,10.329,0,0,1,0,17.89L610.615,192.729a23.141,23.141,0,0,1-23.139,0L448.953,112.746A10.329,10.329,0,0,1,448.953,94.856Z" fill="url(#l)"/>
        <path d="M642.594,222.332,724.584,175c5.87-3.389,10.628-10.9,10.628-16.765v-5.381c0-5.869-4.758-7.881-10.628-4.492L642.594,195.7c-5.87,3.389-10.629,10.894-10.629,16.764v5.381C631.965,223.71,636.724,225.721,642.594,222.332Z" fill="#34c3e2"/>
        <g>
          <polygon points="466.784 134.19 461.629 131.213 461.629 126.058 466.784 129.034 466.784 134.19" fill="#2373a9"/>
          <polygon points="461.629 126.058 460.648 125.491 460.648 131.628 466.784 135.171 466.784 134.19 461.629 131.213 461.629 126.058" fill="#04496d"/>
          <polygon points="458.021 129.13 452.866 126.154 452.866 120.998 458.021 123.975 458.021 129.13" fill="#2373a9"/>
          <polygon points="452.865 120.998 451.885 120.432 451.885 126.568 458.021 130.111 458.021 129.13 452.865 126.154 452.865 120.998" fill="#04496d"/>
          <polygon points="475.548 139.249 470.392 136.273 470.392 131.117 475.548 134.094 475.548 139.249" fill="#2373a9"/>
          <polygon points="470.392 131.117 469.411 130.551 469.411 136.687 475.548 140.23 475.548 139.249 470.392 136.273 470.392 131.117" fill="#04496d"/>
          <polygon points="466.784 142.776 461.629 139.799 461.629 134.643 466.784 137.62 466.784 142.776" fill="#2373a9"/>
          <polygon points="461.629 134.643 460.648 134.077 460.648 140.214 466.784 143.756 466.784 142.776 461.629 139.799 461.629 134.643" fill="#04496d"/>
          <polygon points="458.021 137.716 452.866 134.739 452.866 129.584 458.021 132.56 458.021 137.716" fill="#2373a9"/>
          <polygon points="452.865 129.584 451.885 129.018 451.885 135.154 458.021 138.697 458.021 137.716 452.865 134.739 452.865 129.584" fill="#04496d"/>
          <polygon points="475.548 147.835 470.392 144.858 470.392 139.703 475.548 142.679 475.548 147.835" fill="#2373a9"/>
          <polygon points="470.392 139.703 469.411 139.137 469.411 145.273 475.548 148.816 475.548 147.835 470.392 144.858 470.392 139.703" fill="#04496d"/>
          <polygon points="466.784 151.361 461.629 148.385 461.629 143.229 466.784 146.206 466.784 151.361" fill="#2373a9"/>
          <polygon points="461.629 143.229 460.648 142.663 460.648 148.799 466.784 152.342 466.784 151.361 461.629 148.385 461.629 143.229" fill="#04496d"/>
          <polygon points="458.021 146.302 452.866 143.325 452.866 138.17 458.021 141.146 458.021 146.302" fill="#2373a9"/>
          <polygon points="452.865 138.17 451.885 137.603 451.885 143.74 458.021 147.283 458.021 146.302 452.865 143.325 452.865 138.17" fill="#04496d"/>
          <polygon points="475.548 156.421 470.392 153.444 470.392 148.289 475.548 151.265 475.548 156.421" fill="#2373a9"/>
          <polygon points="470.392 148.289 469.411 147.722 469.411 153.859 475.548 157.402 475.548 156.421 470.392 153.444 470.392 148.289" fill="#04496d"/>
          <polygon points="466.784 159.947 461.629 156.971 461.629 151.815 466.784 154.792 466.784 159.947" fill="#2373a9"/>
          <polygon points="461.629 151.815 460.648 151.249 460.648 157.385 466.784 160.928 466.784 159.947 461.629 156.971 461.629 151.815" fill="#04496d"/>
          <polygon points="458.021 154.888 452.866 151.911 452.866 146.756 458.021 149.732 458.021 154.888" fill="#2373a9"/>
          <polygon points="452.865 146.756 451.885 146.189 451.885 152.326 458.021 155.869 458.021 154.888 452.865 151.911 452.865 146.756" fill="#04496d"/>
          <polygon points="475.548 165.007 470.392 162.03 470.392 156.875 475.548 159.851 475.548 165.007" fill="#2373a9"/>
          <polygon points="470.392 156.875 469.411 156.308 469.411 162.445 475.548 165.988 475.548 165.007 470.392 162.03 470.392 156.875" fill="#04496d"/>
          <polygon points="466.576 168.513 461.42 165.536 461.42 160.381 466.576 163.357 466.576 168.513" fill="#2373a9"/>
          <polygon points="461.42 160.381 460.439 159.815 460.439 165.951 466.576 169.494 466.576 168.513 461.42 165.536 461.42 160.381" fill="#04496d"/>
          <polygon points="457.813 163.454 452.657 160.477 452.657 155.321 457.813 158.298 457.813 163.454" fill="#2373a9"/>
          <polygon points="452.657 155.321 451.676 154.755 451.676 160.892 457.813 164.434 457.813 163.454 452.657 160.477 452.657 155.321" fill="#04496d"/>
          <polygon points="475.339 173.572 470.184 170.596 470.184 165.44 475.339 168.417 475.339 173.572" fill="#2373a9"/>
          <polygon points="470.184 165.44 469.203 164.874 469.203 171.011 475.339 174.553 475.339 173.572 470.184 170.596 470.184 165.44" fill="#04496d"/>
          <polygon points="466.576 177.431 461.42 174.455 461.42 169.299 466.576 172.276 466.576 177.431" fill="#2373a9"/>
          <polygon points="461.42 169.299 460.439 168.733 460.439 174.869 466.576 178.412 466.576 177.431 461.42 174.455 461.42 169.299" fill="#04496d"/>
          <polygon points="457.813 172.372 452.657 169.395 452.657 164.24 457.813 167.216 457.813 172.372" fill="#2373a9"/>
          <polygon points="452.657 164.24 451.676 163.673 451.676 169.81 457.813 173.353 457.813 172.372 452.657 169.395 452.657 164.24" fill="#04496d"/>
          <polygon points="475.339 182.491 470.184 179.514 470.184 174.359 475.339 177.335 475.339 182.491" fill="#2373a9"/>
          <polygon points="470.184 174.359 469.203 173.792 469.203 179.929 475.339 183.472 475.339 182.491 470.184 179.514 470.184 174.359" fill="#04496d"/>
          <polygon points="466.576 186.349 461.42 183.373 461.42 178.217 466.576 181.194 466.576 186.349" fill="#2373a9"/>
          <polygon points="461.42 178.217 460.439 177.651 460.439 183.787 466.576 187.33 466.576 186.349 461.42 183.373 461.42 178.217" fill="#04496d"/>
          <polygon points="457.813 181.29 452.657 178.313 452.657 173.158 457.813 176.134 457.813 181.29" fill="#2373a9"/>
          <polygon points="452.657 173.158 451.676 172.592 451.676 178.728 457.813 182.271 457.813 181.29 452.657 178.313 452.657 173.158" fill="#04496d"/>
          <polygon points="475.339 191.409 470.184 188.432 470.184 183.277 475.339 186.253 475.339 191.409" fill="#2373a9"/>
          <polygon points="470.184 183.277 469.203 182.71 469.203 188.847 475.339 192.39 475.339 191.409 470.184 188.432 470.184 183.277" fill="#04496d"/>
        </g>
        <g>
          <polygon points="572.067 195.036 566.912 192.059 566.912 186.904 572.067 189.88 572.067 195.036" fill="#2373a9"/>
          <polygon points="566.912 186.904 565.931 186.337 565.931 192.474 572.067 196.017 572.067 195.036 566.912 192.059 566.912 186.904" fill="#04496d"/>
          <polygon points="563.304 189.976 558.149 187 558.149 181.844 563.304 184.821 563.304 189.976" fill="#2373a9"/>
          <polygon points="558.149 181.844 557.168 181.278 557.168 187.414 563.304 190.957 563.304 189.976 558.149 187 558.149 181.844" fill="#04496d"/>
          <polygon points="580.831 200.095 575.675 197.119 575.675 191.963 580.831 194.94 580.831 200.095" fill="#2373a9"/>
          <polygon points="575.675 191.963 574.694 191.397 574.694 197.533 580.831 201.076 580.831 200.095 575.675 197.119 575.675 191.963" fill="#04496d"/>
          <polygon points="572.067 203.622 566.912 200.645 566.912 195.49 572.067 198.466 572.067 203.622" fill="#2373a9"/>
          <polygon points="566.912 195.49 565.931 194.923 565.931 201.06 572.067 204.603 572.067 203.622 566.912 200.645 566.912 195.49" fill="#04496d"/>
          <polygon points="563.304 198.562 558.149 195.586 558.149 190.43 563.304 193.407 563.304 198.562" fill="#2373a9"/>
          <polygon points="558.149 190.43 557.168 189.864 557.168 196 563.304 199.543 563.304 198.562 558.149 195.586 558.149 190.43" fill="#04496d"/>
          <polygon points="580.831 208.681 575.675 205.705 575.675 200.549 580.831 203.526 580.831 208.681" fill="#2373a9"/>
          <polygon points="575.675 200.549 574.694 199.983 574.694 206.119 580.831 209.662 580.831 208.681 575.675 205.705 575.675 200.549" fill="#04496d"/>
          <polygon points="572.067 212.208 566.912 209.231 566.912 204.076 572.067 207.052 572.067 212.208" fill="#2373a9"/>
          <polygon points="566.912 204.076 565.931 203.509 565.931 209.646 572.067 213.189 572.067 212.208 566.912 209.231 566.912 204.076" fill="#04496d"/>
          <polygon points="563.304 207.148 558.149 204.172 558.149 199.016 563.304 201.993 563.304 207.148" fill="#2373a9"/>
          <polygon points="558.149 199.016 557.168 198.45 557.168 204.586 563.304 208.129 563.304 207.148 558.149 204.172 558.149 199.016" fill="#04496d"/>
          <polygon points="580.831 217.267 575.675 214.291 575.675 209.135 580.831 212.112 580.831 217.267" fill="#2373a9"/>
          <polygon points="575.675 209.135 574.694 208.569 574.694 214.705 580.831 218.248 580.831 217.267 575.675 214.291 575.675 209.135" fill="#04496d"/>
          <polygon points="572.067 220.794 566.912 217.817 566.912 212.661 572.067 215.638 572.067 220.794" fill="#2373a9"/>
          <polygon points="566.912 212.661 565.931 212.095 565.931 218.232 572.067 221.775 572.067 220.794 566.912 217.817 566.912 212.661" fill="#04496d"/>
          <polygon points="563.304 215.734 558.149 212.758 558.149 207.602 563.304 210.579 563.304 215.734" fill="#2373a9"/>
          <polygon points="558.149 207.602 557.168 207.036 557.168 213.172 563.304 216.715 563.304 215.734 558.149 212.758 558.149 207.602" fill="#04496d"/>
          <polygon points="580.831 225.853 575.675 222.877 575.675 217.721 580.831 220.698 580.831 225.853" fill="#2373a9"/>
          <polygon points="575.675 217.721 574.694 217.155 574.694 223.291 580.831 226.834 580.831 225.853 575.675 222.876 575.675 217.721" fill="#04496d"/>
          <polygon points="571.859 229.359 566.704 226.383 566.704 221.227 571.859 224.204 571.859 229.359" fill="#2373a9"/>
          <polygon points="566.704 221.227 565.723 220.661 565.723 226.797 571.859 230.34 571.859 229.359 566.704 226.383 566.704 221.227" fill="#04496d"/>
          <polygon points="563.096 224.3 557.94 221.323 557.94 216.168 563.096 219.144 563.096 224.3" fill="#2373a9"/>
          <polygon points="557.94 216.168 556.959 215.601 556.959 221.738 563.096 225.281 563.096 224.3 557.94 221.323 557.94 216.168" fill="#04496d"/>
          <polygon points="580.622 234.419 575.467 231.442 575.467 226.287 580.622 229.263 580.622 234.419" fill="#2373a9"/>
          <polygon points="575.467 226.287 574.486 225.72 574.486 231.857 580.622 235.4 580.622 234.419 575.467 231.442 575.467 226.287" fill="#04496d"/>
          <polygon points="571.859 238.277 566.704 235.301 566.704 230.145 571.859 233.122 571.859 238.277" fill="#2373a9"/>
          <polygon points="566.704 230.145 565.723 229.579 565.723 235.716 571.859 239.258 571.859 238.277 566.704 235.301 566.704 230.145" fill="#04496d"/>
          <polygon points="563.096 233.218 557.94 230.241 557.94 225.086 563.096 228.062 563.096 233.218" fill="#2373a9"/>
          <polygon points="557.94 225.086 556.959 224.52 556.959 230.656 563.096 234.199 563.096 233.218 557.94 230.241 557.94 225.086" fill="#04496d"/>
          <polygon points="580.622 243.337 575.467 240.36 575.467 235.205 580.622 238.181 580.622 243.337" fill="#2373a9"/>
          <polygon points="575.467 235.205 574.486 234.638 574.486 240.775 580.622 244.318 580.622 243.337 575.467 240.36 575.467 235.205" fill="#04496d"/>
          <polygon points="571.859 247.196 566.704 244.219 566.704 239.064 571.859 242.04 571.859 247.196" fill="#2373a9"/>
          <polygon points="566.704 239.064 565.723 238.497 565.723 244.634 571.859 248.177 571.859 247.196 566.704 244.219 566.704 239.064" fill="#04496d"/>
          <polygon points="563.096 242.136 557.94 239.16 557.94 234.004 563.096 236.981 563.096 242.136" fill="#2373a9"/>
          <polygon points="557.94 234.004 556.959 233.438 556.959 239.574 563.096 243.117 563.096 242.136 557.94 239.16 557.94 234.004" fill="#04496d"/>
          <polygon points="580.622 252.255 575.467 249.279 575.467 244.123 580.622 247.1 580.622 252.255" fill="#2373a9"/>
          <polygon points="575.467 244.123 574.486 243.557 574.486 249.693 580.622 253.236 580.622 252.255 575.467 249.279 575.467 244.123" fill="#04496d"/>
        </g>
      </g>
    </g>
    <g>
      <path d="M102.456,538.991V520.058l-14.26,8.41L55.358,509.507a8.262,8.262,0,0,0-8.26,0L1.984,535.556a3.968,3.968,0,0,0,0,6.872L47.1,568.477a8.258,8.258,0,0,0,8.26,0l45.114-26.049a3.932,3.932,0,0,0,1.984-3.437Z" fill="url(#m)"/>
      <path d="M48.444,548.3,0,520.058v18.934H0a3.93,3.93,0,0,0,1.984,3.436L47.1,568.477a8.253,8.253,0,0,0,4.13,1.107h0a8.247,8.247,0,0,0,4.129-1.107V547.649Z" fill="url(#n)"/>
      <path d="M1.984,516.622,47.1,490.573a8.256,8.256,0,0,1,8.259,0l45.115,26.049a3.967,3.967,0,0,1,0,6.871l-45.115,26.05a8.261,8.261,0,0,1-8.259,0L1.984,523.493A3.967,3.967,0,0,1,1.984,516.622Z" fill="url(#o)"/>
      <path d="M51.228,547.649a5.262,5.262,0,0,1-2.629-.7L3.483,520.9a.968.968,0,0,1,0-1.676L48.6,493.171a5.256,5.256,0,0,1,5.259,0L98.972,519.22a.967.967,0,0,1,0,1.675l-45.115,26.05A5.264,5.264,0,0,1,51.228,547.649Z" fill="url(#p)"/>
    </g>
    <path d="M66.972,511.887a30.851,30.851,0,0,0-15.744-3.91,30.851,30.851,0,0,0-15.744,3.91H29.568v8.557c0,6.886,9.7,12.468,21.66,12.468s21.66-5.582,21.66-12.468v-8.557Z" fill="url(#q)"/>
    <ellipse cx="51.228" cy="511.887" rx="21.6" ry="12.472" fill="url(#r)"/>
    <path d="M38.216,518.974c-7.157-3.9-7.157-10.276,0-14.174s18.868-3.9,26.024,0,7.157,10.276,0,14.174S45.373,522.871,38.216,518.974Z" fill="url(#s)"/>
  </g>
</svg>
